<?xml version="1.0" encoding="UTF-8" standalone="no"?>
<svg width="182px" height="224px" viewBox="0 0 182 224" version="1.1" xmlns="http://www.w3.org/2000/svg" xmlns:xlink="http://www.w3.org/1999/xlink">
    <!-- Generator: Sketch 3.7.1 (28215) - http://www.bohemiancoding.com/sketch -->
    <title>服务异常</title>
    <desc>Created with Sketch.</desc>
    <defs>
        <polyline id="path-1" points="0 0.529 135.454 0.529 135.454 191 0 191"></polyline>
    </defs>
    <g id="切图" stroke="none" stroke-width="1" fill="none" fill-rule="evenodd">
        <g id="服务异常">
            <g id="小哥" transform="translate(23.000000, 33.000000)">
                <path d="M77.6339,139.0856 C77.6339,139.0856 81.4919,145.3806 87.1169,140.6366 L93.0959,143.9636 C93.0959,143.9636 93.2859,152.3546 86.3239,153.2016 C78.3239,154.1756 71.2049,144.8686 71.2049,144.8686 L77.6339,139.0856 Z" id="Fill-1" fill="#21A9F7"></path>
                <path d="M83.9982,187.5 C83.9982,189.433 75.1962,191 64.3382,191 C53.4802,191 44.6782,189.433 44.6782,187.5 C44.6782,185.567 53.4802,184 64.3382,184 C75.1962,184 83.9982,185.567 83.9982,187.5" id="Fill-3" fill="#D8D8D8"></path>
                <path d="M93.7068,179.2207 L81.7008,179.2207 C76.9748,179.2207 73.1078,175.3537 73.1078,170.6267 L73.1078,163.5557 C73.1078,158.8287 76.9748,154.9617 81.7008,154.9617 L93.7068,154.9617 C98.4338,154.9617 102.3008,158.8287 102.3008,163.5557 L102.3008,170.6267 C102.3008,175.3537 98.4338,179.2207 93.7068,179.2207" id="Fill-5" fill="#1C8DF6"></path>
                <path d="M86.8101,162.1442 L86.8101,162.1442 C86.0841,162.4312 85.2641,162.0752 84.9771,161.3492 L77.3971,142.1692 C77.1111,141.4432 77.4661,140.6232 78.1921,140.3362 L78.1921,140.3362 C78.9181,140.0492 79.7381,140.4052 80.0251,141.1312 L87.6051,160.3112 C87.8911,161.0372 87.5361,161.8572 86.8101,162.1442" id="Fill-7" fill="#303131"></path>
                <path d="M53.631,139.0856 C53.631,139.0856 49.773,145.3806 44.148,140.6366 L38.169,143.9636 C38.169,143.9636 37.979,152.3546 44.941,153.2016 C52.941,154.1756 60.06,144.8686 60.06,144.8686 L53.631,139.0856 Z" id="Fill-9" fill="#21A9F7"></path>
                <path d="M76.3764,140.4801 C76.8884,140.0341 79.4204,139.5341 79.4824,138.6221 C79.6644,135.9971 77.0384,134.8191 77.0384,134.8191 L72.9314,135.2381 L64.8854,135.3251 L57.1244,135.2411 L52.9044,134.8111 C52.9044,134.8111 50.0294,134.8171 50.2104,137.4431 C50.2684,138.2731 53.4494,137.7891 53.9264,139.6381 C48.8014,152.2261 46.6824,167.8971 46.6824,167.8971 L65.2814,167.8971 L65.7654,167.8971 L82.4484,167.8971 C82.4484,167.8971 80.3314,149.1411 76.3764,140.4801" id="Fill-11" fill="#21A9F7"></path>
                <path d="M70.9853,159.3574 C70.6193,158.7224 69.8093,158.5064 69.1773,158.8734 C69.1663,158.8784 69.1553,158.8854 69.1493,158.8934 C66.5693,160.3524 63.2923,159.4634 61.8083,156.8934 C60.3173,154.3094 61.2013,151.0054 63.7853,149.5134 C65.9753,148.2514 68.6753,148.6934 70.3583,150.4264 L65.2613,153.3834 L65.2633,153.3834 C64.6283,153.7514 64.4123,154.5594 64.7803,155.1934 C65.1443,155.8274 65.9523,156.0454 66.5873,155.6804 L74.0253,151.3754 C73.8713,150.9644 73.6833,150.5584 73.4603,150.1654 C71.2363,146.3184 66.3103,144.9974 62.4623,147.2224 C58.6103,149.4434 57.2903,154.3654 59.5153,158.2164 C61.7353,162.0614 66.6453,163.3814 70.4923,161.1754 C70.4963,161.1724 70.4983,161.1714 70.5023,161.1684 L70.5053,161.1674 L70.5113,161.1634 C70.9003,160.9384 71.2643,160.6874 71.5973,160.4104 L70.9883,159.3574 L70.9853,159.3574 Z" id="Fill-13" fill="#FFFFFF"></path>
                <path d="M74.1301,155.2895 L73.4641,154.1405 L71.1681,155.4665 L72.4951,157.7605 L73.6431,157.1005 C74.2761,156.7335 74.4931,155.9235 74.1301,155.2895" id="Fill-15" fill="#FFFFFF"></path>
                <g id="Group-19">
                    <mask id="mask-2" fill="white">
                        <use xlink:href="#path-1"></use>
                    </mask>
                    <g id="Clip-18"></g>
                    <path d="M135.4363,69.7996 C134.5843,107.1946 103.5783,136.8176 66.1833,135.9656 C28.7893,135.1126 -0.8347,104.1076 0.0183,66.7126 C0.8703,29.3176 31.8763,-0.3054 69.2703,0.5466 C106.6653,1.3996 136.2883,32.4046 135.4363,69.7996" id="Fill-17" fill="#21A9F7" mask="url(#mask-2)"></path>
                </g>
                <path d="M125.5417,43.1084 C124.9447,37.5904 115.9557,31.5454 110.2027,30.8294 C98.9867,29.4334 84.3087,27.8804 67.7067,27.4784 C49.8147,27.0454 37.2507,27.9754 24.6717,28.8824 C19.0457,29.2884 11.9937,34.5684 11.0727,39.8874 C9.1117,51.2014 4.7447,71.6794 7.4257,98.5644 C7.4887,99.1934 7.6637,100.6234 7.9047,102.2414 C17.2667,117.9714 33.4627,129.6624 52.7737,133.6404 C56.7067,134.0174 60.9207,134.1074 65.4417,133.8204 C80.9357,132.8384 92.6727,129.9404 101.4327,126.4194 C111.7247,120.7224 120.2727,112.5194 126.1217,102.6674 C127.9447,82.2564 126.9867,56.4604 125.5417,43.1084" id="Fill-20" fill="#1365B5"></path>
                <path d="M17.6917,110.7891 C17.7907,111.6041 18.0927,112.3791 18.5767,113.0201 C20.1207,115.0641 23.4067,118.9261 28.6877,122.8101 C35.7537,128.0081 47.9597,134.3221 65.9827,134.8821 C83.9707,135.1431 96.4517,129.3921 103.7467,124.5211 C109.1967,120.8831 112.6557,117.1761 114.2927,115.2021 C114.8057,114.5831 115.1437,113.8231 115.2797,113.0141 C120.6697,80.8901 118.7607,57.4501 117.4597,47.6941 C117.2027,45.7731 115.8107,44.2571 114.0057,43.9201 C105.1927,42.2731 85.6267,38.9801 68.1567,38.5821 C50.2957,38.1751 30.8787,40.5621 22.1057,41.8121 C20.2917,42.0701 18.8357,43.5191 18.4927,45.4221 C16.7487,55.1001 13.7687,78.4361 17.6917,110.7891 M65.8517,140.6271 C28.3377,139.4611 13.5577,115.6401 12.9477,114.6271 C12.9477,114.6271 12.7677,114.3591 12.6917,114.0821 C12.6507,113.9311 12.5477,113.4711 12.5477,113.4711 C8.3217,80.5201 11.5377,55.3501 13.6147,44.0391 C14.3437,40.0751 17.7937,36.9851 22.2017,36.3321 C32.3057,34.8351 51.3767,32.4521 68.2877,32.8381 C84.8607,33.2161 104.0507,36.5661 114.1677,38.5641 C118.5267,39.4251 121.8177,42.6581 122.3687,46.6391 C123.9367,57.9931 126.0187,83.2071 120.2957,115.9271 C120.2957,115.9271 120.2347,116.2201 120.1247,116.5141 C119.9947,116.8631 119.8437,117.0631 119.8437,117.0631 C119.1877,118.0481 103.3377,141.1711 65.8517,140.6271" id="Fill-22" fill="#1365B5"></path>
                <path d="M120.1695,47.3576 C119.7405,44.1686 117.4475,41.6426 114.4505,41.0806 C105.5625,39.4156 85.9435,36.1146 68.2225,35.7106 C50.1025,35.2976 30.6295,37.6926 21.7825,38.9566 C18.7695,39.3866 16.3745,41.8046 15.8015,44.9636 C14.0005,54.8946 11.0205,78.3786 14.9985,111.1616 C15.1615,112.5026 15.6655,113.7756 16.4615,114.8316 C20.5955,120.3126 35.5145,136.8096 65.8965,137.7536 C96.2895,138.1956 111.9455,122.3946 116.3245,117.1076 C117.1675,116.0896 117.7295,114.8406 117.9525,113.5086 C123.4185,80.9566 121.5165,57.3686 120.1695,47.3576" id="Fill-24" fill="#1365B5"></path>
                <path d="M61.6327,73.5405 C59.3747,71.9145 56.5607,71.6095 54.0987,72.4445 C52.5247,72.9785 51.0937,73.9695 50.0497,75.4095 C50.0447,75.4165 50.0387,75.4215 50.0337,75.4285 L42.1637,86.2305 C39.3837,89.4205 34.5677,90.0675 31.0697,87.5475 C27.3607,84.8775 26.5107,79.6575 29.1817,75.9485 L58.4317,35.6635 C46.9487,36.0635 31.1987,37.8115 23.5937,38.8435 C19.0797,39.4555 15.9927,42.3035 15.4927,46.3905 C11.1297,82.0035 14.4427,113.3115 14.4427,113.3115 C15.7407,115.2365 17.1637,116.9905 18.6487,118.6065 C22.8357,123.1615 27.5307,126.5145 31.5147,128.8505 C31.8307,128.5355 32.1427,128.2125 32.4107,127.8395 L45.9467,109.2605 L63.5207,85.1395 C66.1907,81.4305 65.3417,76.2115 61.6327,73.5405" id="Fill-26" fill="#FFFFFF" opacity="0.1"></path>
                <path d="M46.682,167.897 L82.449,167.897 C82.449,167.897 77.982,177.5 66.23,177.5 C52.149,177.5 46.682,167.897 46.682,167.897" id="Fill-28" fill="#303131"></path>
                <path d="M51.1756,172.6985 C51.1756,172.6985 57.9826,187.4995 61.1486,187.4995 C64.3156,187.4995 64.5656,174.4655 64.5656,174.4655 L51.1756,172.6985 Z" id="Fill-30" fill="#303131"></path>
                <path d="M77.2982,172.6985 C77.2982,172.6985 70.4912,187.4995 67.3252,187.4995 C64.1582,187.4995 63.9082,174.4655 63.9082,174.4655 L77.2982,172.6985 Z" id="Fill-32" fill="#303131"></path>
                <path d="M66.0236,132.6163 L66.0236,132.6163 C65.7106,132.6163 65.4536,132.3603 65.4536,132.0463 L65.4536,126.8423 C65.4536,126.5283 65.7106,126.2723 66.0236,126.2723 C66.3366,126.2723 66.5936,126.5283 66.5936,126.8423 L66.5936,132.0463 C66.5936,132.3603 66.3366,132.6163 66.0236,132.6163" id="Fill-34" fill="#FFBC00"></path>
                <path d="M65.9541,126.8414 L65.9541,132.0464 L66.0231,132.1154 C66.0601,132.1154 66.0931,132.0834 66.0931,132.0464 L66.0931,126.8414 L65.9541,126.8414 Z M66.0231,133.1154 C65.4331,133.1154 64.9541,132.6364 64.9541,132.0464 L64.9541,126.8414 C64.9541,126.2514 65.4331,125.7724 66.0231,125.7724 C66.6131,125.7724 67.0931,126.2514 67.0931,126.8414 L67.0931,132.0464 C67.0931,132.6364 66.6131,133.1154 66.0231,133.1154 L66.0231,133.1154 Z" id="Fill-36" fill="#FFBC00"></path>
                <path d="M61.259,132.5404 L61.259,132.5404 C60.988,132.6974 60.637,132.6034 60.481,132.3314 L57.878,127.8244 C57.722,127.5534 57.816,127.2024 58.087,127.0464 C58.358,126.8894 58.708,126.9834 58.865,127.2544 L61.468,131.7624 C61.624,132.0334 61.53,132.3834 61.259,132.5404" id="Fill-38" fill="#FFBC00"></path>
                <path d="M58.4321,127.5045 L58.3051,127.5225 L60.9141,132.0815 L61.2591,132.5405 L61.0081,132.1085 C61.0411,132.0885 61.0531,132.0445 61.0341,132.0115 L58.4321,127.5045 Z M60.9771,133.1165 C60.8841,133.1165 60.7901,133.1045 60.6971,133.0795 C60.4201,133.0055 60.1901,132.8275 60.0471,132.5805 L57.4451,128.0745 C57.3031,127.8275 57.2651,127.5385 57.3391,127.2625 C57.4131,126.9855 57.5901,126.7555 57.8371,126.6125 C58.0831,126.4705 58.3701,126.4325 58.6481,126.5065 C58.9251,126.5805 59.1561,126.7575 59.2981,127.0045 L61.9011,131.5125 C62.1951,132.0235 62.0191,132.6785 61.5091,132.9735 L61.5081,132.9745 C61.3451,133.0675 61.1621,133.1165 60.9771,133.1165 L60.9771,133.1165 Z" id="Fill-40" fill="#FFBC00"></path>
                <path d="M71.0452,132.5404 L71.0452,132.5404 C71.3162,132.6974 71.6672,132.6034 71.8232,132.3314 L74.4262,127.8244 C74.5822,127.5534 74.4882,127.2024 74.2172,127.0464 L74.2172,127.0464 C73.9462,126.8894 73.5962,126.9834 73.4392,127.2544 L70.8362,131.7624 C70.6802,132.0334 70.7742,132.3834 71.0452,132.5404" id="Fill-42" fill="#FFBC00"></path>
                <path d="M73.914,127.4723 L71.27,132.0123 L71.045,132.5403 L71.295,132.1073 C71.328,132.1283 71.372,132.1153 71.391,132.0813 L73.993,127.5753 L73.914,127.4723 Z M71.328,133.1173 C71.147,133.1173 70.963,133.0713 70.796,132.9743 L70.795,132.9733 C70.285,132.6783 70.109,132.0223 70.404,131.5123 L73.006,127.0043 C73.148,126.7573 73.379,126.5803 73.656,126.5063 C73.933,126.4333 74.22,126.4703 74.468,126.6143 C74.714,126.7553 74.891,126.9863 74.965,127.2623 C75.039,127.5383 75.001,127.8273 74.859,128.0753 L72.257,132.5813 C72.059,132.9243 71.698,133.1173 71.328,133.1173 L71.328,133.1173 Z" id="Fill-44" fill="#FFBC00"></path>
                <path d="M66.0236,154.8139 L66.0236,154.8139 C65.7106,154.8139 65.4536,155.0699 65.4536,155.3839 L65.4536,160.5879 C65.4536,160.9019 65.7106,161.1579 66.0236,161.1579 C66.3366,161.1579 66.5936,160.9019 66.5936,160.5879 L66.5936,155.3839 C66.5936,155.0699 66.3366,154.8139 66.0236,154.8139" id="Fill-46" fill="#FFBC00"></path>
                <path d="M66.0234,155.3141 C65.9864,155.3141 65.9544,155.3461 65.9544,155.3831 L65.9544,160.5881 L66.0934,160.5881 L66.0934,155.3831 L66.0234,155.3141 Z M66.0234,161.6581 C65.4334,161.6581 64.9544,161.1781 64.9544,160.5881 L64.9544,155.3831 C64.9544,154.7931 65.4334,154.3141 66.0234,154.3141 C66.6134,154.3141 67.0934,154.7931 67.0934,155.3831 L67.0934,160.5881 C67.0934,161.1781 66.6134,161.6581 66.0234,161.6581 L66.0234,161.6581 Z" id="Fill-48" fill="#FFBC00"></path>
                <path d="M61.259,154.8898 L61.259,154.8898 C60.988,154.7328 60.637,154.8268 60.481,155.0988 L57.878,159.6058 C57.722,159.8768 57.816,160.2278 58.087,160.3838 C58.358,160.5408 58.708,160.4468 58.865,160.1758 L61.468,155.6678 C61.624,155.3968 61.53,155.0468 61.259,154.8898" id="Fill-50" fill="#FFBC00"></path>
                <path d="M60.9751,155.3141 C60.9681,155.3141 60.9611,155.3151 60.9561,155.3161 L58.3111,159.8561 L58.4321,159.9251 L61.0351,155.4181 L61.0081,155.3231 C60.9961,155.3161 60.9851,155.3141 60.9751,155.3141 M58.3701,160.9601 C58.1881,160.9601 58.0051,160.9151 57.8371,160.8181 C57.3261,160.5221 57.1511,159.8661 57.4451,159.3561 L60.0481,154.8481 C60.1901,154.6011 60.4211,154.4241 60.6981,154.3501 C60.9741,154.2771 61.2621,154.3141 61.5081,154.4571 C61.7551,154.5991 61.9321,154.8301 62.0061,155.1061 C62.0811,155.3821 62.0431,155.6701 61.9011,155.9181 L59.2981,160.4251 C59.1001,160.7681 58.7401,160.9601 58.3701,160.9601" id="Fill-52" fill="#FFBC00"></path>
                <path d="M71.0452,154.8898 L71.0452,154.8898 C71.3162,154.7328 71.6672,154.8268 71.8232,155.0988 L74.4262,159.6058 C74.5822,159.8768 74.4882,160.2278 74.2172,160.3838 L74.2172,160.3838 C73.9462,160.5408 73.5962,160.4468 73.4392,160.1758 L70.8362,155.6678 C70.6802,155.3968 70.7742,155.0468 71.0452,154.8898" id="Fill-54" fill="#FFBC00"></path>
                <path d="M71.2949,155.3239 C71.2749,155.3349 71.2669,155.3519 71.2639,155.3659 L73.8719,159.9259 L73.9929,159.8559 L71.3909,155.3479 L71.2949,155.3239 Z M73.9349,160.9599 C73.5639,160.9599 73.2039,160.7679 73.0059,160.4259 L70.4039,155.9179 C70.2609,155.6719 70.2239,155.3839 70.2969,155.1069 C70.3719,154.8299 70.5489,154.5989 70.7959,154.4569 C71.0419,154.3139 71.3299,154.2769 71.6059,154.3499 C71.8829,154.4249 72.1139,154.6009 72.2569,154.8479 L74.8589,159.3559 C75.1529,159.8659 74.9779,160.5219 74.4679,160.8169 C74.2999,160.9139 74.1159,160.9599 73.9349,160.9599 L73.9349,160.9599 Z" id="Fill-56" fill="#FFBC00"></path>
                <path d="M58.888,151.6795 L50.139,151.6795 C45.712,151.6795 42.09,148.0575 42.09,143.6305 L42.09,143.6305 C42.09,139.2035 45.712,135.5805 50.139,135.5805 L58.703,135.5805" id="Stroke-58" stroke="#EC6849" stroke-width="3" stroke-linecap="round"></path>
                <path d="M49.3077,143.6302 C49.3077,146.8702 46.6807,149.4972 43.4407,149.4972 C40.1997,149.4972 37.5727,146.8702 37.5727,143.6302 C37.5727,140.3902 40.1997,137.7632 43.4407,137.7632 C46.6807,137.7632 49.3077,140.3902 49.3077,143.6302" id="Fill-60" fill="#F1D1B5"></path>
                <path d="M72.6665,151.6795 L82.4155,151.6795 C86.8425,151.6795 90.4645,148.0575 90.4645,143.6305 L90.4645,143.6305 C90.4645,139.2035 86.8425,135.5805 82.4155,135.5805 L72.8515,135.5805" id="Stroke-62" stroke="#EC6849" stroke-width="3" stroke-linecap="round"></path>
                <path d="M81.9573,143.6302 C81.9573,146.8702 84.5843,149.4972 87.8243,149.4972 C91.0653,149.4972 93.6923,146.8702 93.6923,143.6302 C93.6923,140.3902 91.0653,137.7632 87.8243,137.7632 C84.5843,137.7632 81.9573,140.3902 81.9573,143.6302" id="Fill-64" fill="#F1D1B5"></path>
            </g>
        </g>
    </g>
</svg>