<?xml version="1.0" encoding="UTF-8" standalone="no"?>
<svg width="182px" height="224px" viewBox="0 0 182 224" version="1.1" xmlns="http://www.w3.org/2000/svg" xmlns:xlink="http://www.w3.org/1999/xlink">
    <!-- Generator: Sketch 3.7.1 (28215) - http://www.bohemiancoding.com/sketch -->
    <title>服务异常</title>
    <desc>Created with Sketch.</desc>
    <defs>
        <polyline id="path-1" points="0 0.184 135.454 0.184 135.454 224 0 224"></polyline>
    </defs>
    <g id="切图" stroke="none" stroke-width="1" fill="none" fill-rule="evenodd">
        <g id="服务异常">
            <g id="小哥" transform="translate(23.000000, 0.000000)">
                <path d="M83.9982,220.5 C83.9982,222.433 75.1962,224 64.3382,224 C53.4802,224 44.6782,222.433 44.6782,220.5 C44.6782,218.567 53.4802,217 64.3382,217 C75.1962,217 83.9982,218.567 83.9982,220.5" id="Fill-1" fill="#D8D8D8"></path>
                <path d="M93.7068,212.2207 L81.7008,212.2207 C76.9748,212.2207 73.1078,208.3537 73.1078,203.6267 L73.1078,196.5557 C73.1078,191.8287 76.9748,187.9617 81.7008,187.9617 L93.7068,187.9617 C98.4338,187.9617 102.3008,191.8287 102.3008,196.5557 L102.3008,203.6267 C102.3008,208.3537 98.4338,212.2207 93.7068,212.2207" id="Fill-3" fill="#1C8DF6"></path>
                <path d="M76.1106,172.0504 C76.1106,172.0504 81.3006,184.0004 93.6346,174.8334 L101.4676,175.5004 C101.4676,175.5004 91.7626,185.3194 84.8006,186.1664 C76.8006,187.1404 69.6816,177.8334 69.6816,177.8334 L76.1106,172.0504 Z" id="Fill-5" fill="#21A9F7"></path>
                <path d="M93.3975,175.1752 C93.3975,175.1752 94.1145,172.6212 99.4715,173.0362 C104.8285,173.4522 107.2475,170.4522 108.9655,169.9232 C110.6845,169.3952 108.5425,176.0152 102.3415,177.7862 C96.1405,179.5572 93.3975,175.1752 93.3975,175.1752" id="Fill-7" fill="#F1D1B5"></path>
                <path d="M86.8101,195.1441 L86.8101,195.1441 C86.0841,195.4311 85.2641,195.0751 84.9771,194.3491 L77.3971,175.1691 C77.1111,174.4431 77.4661,173.6231 78.1921,173.3361 L78.1921,173.3361 C78.9181,173.0491 79.7381,173.4051 80.0251,174.1311 L87.6051,193.3111 C87.8911,194.0371 87.5361,194.8571 86.8101,195.1441" id="Fill-9" fill="#303131"></path>
                <path d="M53.631,172.0856 C53.631,172.0856 48.441,184.0356 36.107,174.8686 L28.274,175.5356 C28.274,175.5356 37.979,185.3546 44.941,186.2016 C52.941,187.1756 60.06,177.8686 60.06,177.8686 L53.631,172.0856 Z" id="Fill-11" fill="#21A9F7"></path>
                <path d="M76.3764,173.4801 C76.8884,173.0341 79.4204,172.5341 79.4824,171.6221 C79.6644,168.9971 77.0384,167.8191 77.0384,167.8191 L72.9314,168.2381 L64.8854,168.3251 L57.1244,168.2411 L52.9044,167.8111 C52.9044,167.8111 50.2784,168.9881 50.4594,171.6141 C50.5174,172.4441 53.4494,170.7891 53.9264,172.6381 C48.8014,185.2261 46.6824,200.8971 46.6824,200.8971 L65.2814,200.8971 L65.7654,200.8971 L82.4484,200.8971 C82.4484,200.8971 80.3314,182.1411 76.3764,173.4801" id="Fill-13" fill="#21A9F7"></path>
                <path d="M70.9853,192.3574 C70.6193,191.7224 69.8093,191.5064 69.1773,191.8734 C69.1663,191.8784 69.1553,191.8854 69.1493,191.8934 C66.5693,193.3524 63.2923,192.4634 61.8083,189.8934 C60.3173,187.3094 61.2013,184.0054 63.7853,182.5134 C65.9753,181.2514 68.6753,181.6934 70.3583,183.4264 L65.2613,186.3834 L65.2633,186.3834 C64.6283,186.7514 64.4123,187.5594 64.7803,188.1934 C65.1443,188.8274 65.9523,189.0454 66.5873,188.6804 L74.0253,184.3754 C73.8713,183.9644 73.6833,183.5584 73.4603,183.1654 C71.2363,179.3184 66.3103,177.9974 62.4623,180.2224 C58.6103,182.4434 57.2903,187.3654 59.5153,191.2164 C61.7353,195.0614 66.6453,196.3814 70.4923,194.1754 C70.4963,194.1724 70.4983,194.1714 70.5023,194.1684 L70.5053,194.1674 L70.5113,194.1634 C70.9003,193.9384 71.2643,193.6874 71.5973,193.4104 L70.9883,192.3574 L70.9853,192.3574 Z" id="Fill-15" fill="#FFFFFF"></path>
                <path d="M74.1301,188.2895 L73.4641,187.1405 L71.1681,188.4665 L72.4951,190.7605 L73.6431,190.1005 C74.2761,189.7335 74.4931,188.9235 74.1301,188.2895" id="Fill-17" fill="#FFFFFF"></path>
                <g id="Group-21">
                    <mask id="mask-2" fill="white">
                        <use xlink:href="#path-1"></use>
                    </mask>
                    <g id="Clip-20"></g>
                    <path d="M135.4363,102.7996 C134.5843,140.1946 103.5783,169.8176 66.1833,168.9656 C28.7893,168.1126 -0.8347,137.1076 0.0183,99.7126 C0.8703,62.3176 31.8763,32.6946 69.2703,33.5466 C106.6653,34.3996 136.2883,65.4046 135.4363,102.7996" id="Fill-19" fill="#21A9F7" mask="url(#mask-2)"></path>
                </g>
                <path d="M125.5417,76.1084 C124.9447,70.5904 115.9557,64.5454 110.2027,63.8294 C98.9867,62.4334 84.3087,60.8804 67.7067,60.4784 C49.8147,60.0454 37.2507,60.9754 24.6717,61.8824 C19.0457,62.2884 11.9937,67.5684 11.0727,72.8874 C9.1117,84.2014 4.7447,104.6794 7.4257,131.5644 C7.4887,132.1934 7.6637,133.6234 7.9047,135.2414 C17.2667,150.9714 33.4627,162.6624 52.7737,166.6404 C56.7067,167.0174 60.9207,167.1074 65.4417,166.8204 C80.9357,165.8384 92.6727,162.9404 101.4327,159.4194 C111.7247,153.7224 120.2727,145.5194 126.1217,135.6674 C127.9447,115.2564 126.9867,89.4604 125.5417,76.1084" id="Fill-22" fill="#1365B5"></path>
                <path d="M17.6917,143.7891 C17.7907,144.6041 18.0927,145.3791 18.5767,146.0201 C20.1207,148.0641 23.4067,151.9261 28.6877,155.8101 C35.7537,161.0081 47.9597,167.3221 65.9827,167.8821 C83.9707,168.1431 96.4517,162.3921 103.7467,157.5211 C109.1967,153.8831 112.6557,150.1761 114.2927,148.2021 C114.8057,147.5831 115.1437,146.8231 115.2797,146.0141 C120.6697,113.8901 118.7607,90.4501 117.4597,80.6941 C117.2027,78.7731 115.8107,77.2571 114.0057,76.9201 C105.1927,75.2731 85.6267,71.9801 68.1567,71.5821 C50.2957,71.1751 30.8787,73.5621 22.1057,74.8121 C20.2917,75.0701 18.8357,76.5191 18.4927,78.4221 C16.7487,88.1001 13.7687,111.4361 17.6917,143.7891 M65.8517,173.6271 C28.3377,172.4611 13.5577,148.6401 12.9477,147.6271 C12.9477,147.6271 12.7677,147.3591 12.6917,147.0821 C12.6507,146.9311 12.5477,146.4711 12.5477,146.4711 C8.3217,113.5201 11.5377,88.3501 13.6147,77.0391 C14.3437,73.0751 17.7937,69.9851 22.2017,69.3321 C32.3057,67.8351 51.3767,65.4521 68.2877,65.8381 C84.8607,66.2161 104.0507,69.5661 114.1677,71.5641 C118.5267,72.4251 121.8177,75.6581 122.3687,79.6391 C123.9367,90.9931 126.0187,116.2071 120.2957,148.9271 C120.2957,148.9271 120.2347,149.2201 120.1247,149.5141 C119.9947,149.8631 119.8437,150.0631 119.8437,150.0631 C119.1877,151.0481 103.3377,174.1711 65.8517,173.6271" id="Fill-24" fill="#1365B5"></path>
                <path d="M120.1695,80.3576 C119.7405,77.1686 117.4475,74.6426 114.4505,74.0806 C105.5625,72.4156 85.9435,69.1146 68.2225,68.7106 C50.1025,68.2976 30.6295,70.6926 21.7825,71.9566 C18.7695,72.3866 16.3745,74.8046 15.8015,77.9636 C14.0005,87.8946 11.0205,111.3786 14.9985,144.1616 C15.1615,145.5026 15.6655,146.7756 16.4615,147.8316 C20.5955,153.3126 35.5145,169.8096 65.8965,170.7536 C96.2895,171.1956 111.9455,155.3946 116.3245,150.1076 C117.1675,149.0896 117.7295,147.8406 117.9525,146.5086 C123.4185,113.9566 121.5165,90.3686 120.1695,80.3576" id="Fill-26" fill="#1365B5"></path>
                <path d="M61.6327,106.5405 C59.3747,104.9145 56.5607,104.6095 54.0987,105.4445 C52.5247,105.9785 51.0937,106.9695 50.0497,108.4095 C50.0447,108.4165 50.0387,108.4215 50.0337,108.4285 L42.1637,119.2295 C39.3837,122.4205 34.5677,123.0675 31.0697,120.5475 C27.3607,117.8775 26.5107,112.6575 29.1817,108.9485 L58.4317,68.6635 C46.9487,69.0635 31.1987,70.8115 23.5937,71.8435 C19.0797,72.4555 15.9927,75.3035 15.4927,79.3895 C11.1297,115.0035 14.4427,146.3115 14.4427,146.3115 C15.7407,148.2365 17.1637,149.9905 18.6487,151.6065 C22.8357,156.1615 27.5307,159.5145 31.5147,161.8505 C31.8307,161.5355 32.1427,161.2125 32.4107,160.8395 L45.9467,142.2605 L63.5207,118.1395 C66.1907,114.4305 65.3417,109.2115 61.6327,106.5405" id="Fill-28" fill-opacity="0.2" fill="#FFFFFF" opacity="0.4"></path>
                <path d="M54.2574,12.5163 C54.2574,12.5163 55.1494,8.2503 59.6914,6.7993" id="Stroke-32" stroke="#A0A0A0" stroke-width="3" stroke-linecap="round"></path>
                <path d="M49.3967,11.9134 C49.3967,11.9134 50.7277,4.2944 59.1177,1.6844" id="Stroke-34" stroke="#A0A0A0" stroke-width="3" stroke-linecap="round"></path>
                <path d="M46.682,200.897 L82.449,200.897 C82.449,200.897 77.982,210.5 66.23,210.5 C52.149,210.5 46.682,200.897 46.682,200.897" id="Fill-36" fill="#303131"></path>
                <path d="M51.1756,205.6985 C51.1756,205.6985 57.9826,220.4995 61.1486,220.4995 C64.3156,220.4995 64.5656,207.4655 64.5656,207.4655 L51.1756,205.6985 Z" id="Fill-38" fill="#303131"></path>
                <path d="M77.2982,205.6985 C77.2982,205.6985 70.4912,220.4995 67.3252,220.4995 C64.1582,220.4995 63.9082,207.4655 63.9082,207.4655 L77.2982,205.6985 Z" id="Fill-40" fill="#303131"></path>
                <path d="M36.1622,174.9967 C36.1622,174.9967 35.4452,172.4427 30.0882,172.8577 C24.7312,173.2737 22.3122,170.2737 20.5942,169.7447 C18.8752,169.2167 21.0172,175.8367 27.2182,177.6077 C33.4192,179.3787 36.1622,174.9967 36.1622,174.9967" id="Fill-42" fill="#F1D1B5"></path>
                <path d="M60.4634571,16.2733531 L50.4183,25.7965 C55.4230908,31.0755706 63.1472987,32.2265382 69.3339233,29.1362597 L66.6825,34.6126 L73.3375,34.6126 L72.011306,27.4499997 C72.4295966,27.1250496 72.8358443,26.7765652 73.2283,26.4045 C79.6953,20.2745 79.9683,10.0615 73.8373,3.5945 L64.7307164,12.2278477 L62.226,11.4225 C60.971,11.0195 59.737,12.0925 59.963,13.3915 L60.4634571,16.2733531 Z" id="Fill-44" fill="#6B6B6B"></path>
            </g>
        </g>
    </g>
</svg>