<?xml version="1.0" encoding="UTF-8" standalone="no"?>
<svg width="182px" height="224px" viewBox="0 0 182 224" version="1.1" xmlns="http://www.w3.org/2000/svg" xmlns:xlink="http://www.w3.org/1999/xlink">
    <!-- Generator: Sketch 3.7.1 (28215) - http://www.bohemiancoding.com/sketch -->
    <title>服务异常</title>
    <desc>Created with Sketch.</desc>
    <defs>
        <polygon id="path-1" points="0 0.78 181.069 0.78 181.069 189 0 189"></polygon>
    </defs>
    <g id="切图" stroke="none" stroke-width="1" fill="none" fill-rule="evenodd">
        <g id="服务异常">
            <g id="小哥" transform="translate(0.000000, 35.000000)">
                <polygon id="Fill-1" fill="#F1D1B5" points="73.9066 135.3596 44.8366 135.3596 44.8366 113.8596 73.9066 113.8596 78.3366 124.6096"></polygon>
                <polygon id="Fill-2" fill="#FF6F6C" points="46.6728 123.4601 66.4998 123.4601 66.4998 119.3121 76.4998 125.0851 66.4998 130.8581 66.4998 126.7101 46.6728 126.7101"></polygon>
                <g id="Group-28">
                    <path d="M112.6369,144.4114 C84.8619,144.2194 67.9519,129.3344 60.4129,120.6034 C57.4229,117.1414 55.4449,112.9164 54.7599,108.3944 C49.3459,72.6864 56.1699,53.8054 56.4529,52.8274 L56.9059,51.2664 L58.6999,50.9774 C58.9829,50.9324 87.3089,46.4204 112.8759,46.4204 C137.8129,46.4204 166.7519,50.9304 167.0409,50.9764 L168.8439,51.2594 L169.2989,52.8274 C169.5789,53.7964 175.7199,75.6314 170.5009,111.1194 C169.7289,116.3664 167.2099,121.2054 163.3779,124.8734 C155.3049,132.6044 138.8289,144.2304 112.6369,144.4114" id="Fill-3" fill="#00448F"></path>
                    <path d="M138.0224,161.0163 L119.1204,142.0633 C118.4654,141.4073 118.4674,140.3343 119.1234,139.6793 L121.8644,136.9463 C122.5204,136.2913 123.5934,136.2933 124.2484,136.9493 L143.1504,155.9023 C143.8054,156.5583 143.8034,157.6313 143.1474,158.2853 L140.4064,161.0193 C139.7494,161.6743 138.6774,161.6723 138.0224,161.0163" id="Fill-5" fill="#21A9F7"></path>
                    <path d="M133.8849,185.5 C133.8849,187.433 125.0829,189 114.2249,189 C103.3669,189 94.5649,187.433 94.5649,185.5 C94.5649,183.567 103.3669,182 114.2249,182 C125.0829,182 133.8849,183.567 133.8849,185.5" id="Fill-7" fill="#D8D8D8"></path>
                    <polygon id="Fill-9" fill="#F1D1B5" points="75.0702 97.2898 46.0002 97.2898 46.0002 75.7898 75.0702 75.7898 79.5002 86.5398"></polygon>
                    <polygon id="Fill-11" fill="#FF6F6C" points="46.6728 84.9148 66.4998 84.9148 66.4998 80.7668 76.4998 86.5398 66.4998 92.3128 66.4998 88.1648 46.6728 88.1648"></polygon>
                    <mask id="mask-2" fill="white">
                        <use xlink:href="#path-1"></use>
                    </mask>
                    <g id="Clip-14"></g>
                    <polygon id="Fill-13" fill="#F1D1B5" mask="url(#mask-2)" points="40 169.607 46 169.607 46 73.595 40 73.595"></polygon>
                    <polygon id="Fill-15" fill="#F1D1B5" mask="url(#mask-2)" points="5.4876 118.5923 41.4996 118.5923 41.4996 97.0923 5.4876 97.0923 -0.0004 107.8423"></polygon>
                    <polygon id="Fill-16" fill="#CECECE" mask="url(#mask-2)" points="97 27.909 86.667 27.909 86.667 12.137 97 12.137"></polygon>
                    <path d="M142.2262,177.278 L130.2202,177.278 C125.4942,177.278 121.6272,173.411 121.6272,168.684 L121.6272,161.613 C121.6272,156.886 125.4942,153.019 130.2202,153.019 L142.2262,153.019 C146.9532,153.019 150.8202,156.886 150.8202,161.613 L150.8202,168.684 C150.8202,173.411 146.9532,177.278 142.2262,177.278" id="Fill-17" fill="#1C8DF6" mask="url(#mask-2)"></path>
                    <path d="M123.6802,137.1243 C124.1922,136.6783 126.7242,136.1783 126.7862,135.2663 C126.9682,132.6413 124.3422,131.4633 124.3422,131.4633 L120.2352,131.8823 L112.1892,131.9693 L104.4282,131.8853 L100.2082,131.4553 C100.2082,131.4553 97.5822,132.6323 97.7632,135.2583 C97.8212,136.0883 99.8842,137.4423 100.3322,137.8803 C94.8382,149.3993 93.9862,164.5413 93.9862,164.5413 L112.5852,164.5413 L113.0692,164.5413 L129.7522,164.5413 C129.7522,164.5413 127.6352,145.7853 123.6802,137.1243" id="Fill-18" fill="#21A9F7" mask="url(#mask-2)"></path>
                    <path d="M93.9858,164.5412 L129.7528,164.5412 C129.7528,164.5412 133.7228,185.1542 129.7528,185.3872 C125.7818,185.6212 120.2888,175.0202 112.7518,174.9642 C105.4148,174.9102 102.4278,183.5262 96.1228,185.3912 C89.8168,187.2562 93.9858,164.5412 93.9858,164.5412" id="Fill-19" fill="#303131" mask="url(#mask-2)"></path>
                    <path d="M181.0686,70.5587 C181.0686,108.0697 150.6596,138.4787 113.1486,138.4787 C75.6366,138.4787 45.2286,108.0697 45.2286,70.5587 C45.2286,33.0477 75.6366,2.6387 113.1486,2.6387 C150.6596,2.6387 181.0686,33.0477 181.0686,70.5587" id="Fill-20" fill="#21A9F7" mask="url(#mask-2)"></path>
                    <path d="M99.8436,128.3805 C99.8436,133.0325 96.0726,136.8045 91.4196,136.8045 C86.7676,136.8045 82.9966,133.0325 82.9966,128.3805 C82.9966,123.7285 86.7676,119.9565 91.4196,119.9565 C96.0726,119.9565 99.8436,123.7285 99.8436,128.3805" id="Fill-21" fill="#F1D1B5" mask="url(#mask-2)"></path>
                    <path d="M104.8915,144.9528 L86.6295,150.1268 C84.7135,150.6698 82.7015,149.5458 82.1585,147.6298 L82.1585,147.6298 C81.6165,145.7138 82.7395,143.7018 84.6555,143.1588 L102.9175,137.9848 C104.8335,137.4418 106.8455,138.5658 107.3885,140.4818 L107.3885,140.4818 C107.9315,142.3978 106.8075,144.4098 104.8915,144.9528" id="Fill-22" fill="#21A9F7" mask="url(#mask-2)"></path>
                    <path d="M82.198,145.6825 L86.714,131.7535 C87.328,129.8595 89.381,128.8115 91.275,129.4255 L91.275,129.4255 C93.17,130.0405 94.217,132.0925 93.603,133.9875 L89.087,147.9165 C88.473,149.8105 86.42,150.8585 84.526,150.2435 L84.526,150.2435 C82.631,149.6295 81.584,147.5775 82.198,145.6825" id="Fill-23" fill="#21A9F7" mask="url(#mask-2)"></path>
                    <path d="M134.7327,165.1939 L99.2197,138.5309 C98.8107,138.2229 98.7277,137.6369 99.0347,137.2279 L100.3177,135.5179 C100.6257,135.1089 101.2117,135.0249 101.6207,135.3329 L137.1337,161.9959 C137.5427,162.3029 137.6267,162.8899 137.3187,163.2989 L136.0357,165.0089 C135.7287,165.4179 135.1417,165.5009 134.7327,165.1939" id="Fill-24" fill="#303131" mask="url(#mask-2)"></path>
                    <polygon id="Fill-25" fill="#FF6F6C" mask="url(#mask-2)" points="36.6232 106.2669 16.7962 106.2669 16.7962 102.1189 6.7962 107.8919 16.7962 113.6649 16.7962 109.5169 36.6232 109.5169"></polygon>
                    <path d="M164.2972,72.8634 C164.2972,77.1064 160.8582,80.5454 156.6152,80.5454 C152.3722,80.5454 148.9332,77.1064 148.9332,72.8634 C148.9332,68.6204 152.3722,65.1814 156.6152,65.1814 C160.8582,65.1814 164.2972,68.6204 164.2972,72.8634" id="Fill-26" fill="#FF6F6C" mask="url(#mask-2)"></path>
                    <path d="M156.6266,0.78 C140.7116,0.781 146.1846,32.712 154.1406,59.413 C154.1406,59.903 155.2536,60.3 156.6266,60.3 C157.9996,60.3 159.1126,59.903 159.1126,59.413 L159.1126,59.413 C167.0686,32.712 171.4626,0.779 156.6266,0.78" id="Fill-27" fill="#FF6F6C" mask="url(#mask-2)"></path>
                </g>
            </g>
        </g>
    </g>
</svg>