<?xml version="1.0" encoding="UTF-8" standalone="no"?>
<svg width="182px" height="224px" viewBox="0 0 182 224" version="1.1" xmlns="http://www.w3.org/2000/svg" xmlns:xlink="http://www.w3.org/1999/xlink">
    <!-- Generator: Sketch 3.7.1 (28215) - http://www.bohemiancoding.com/sketch -->
    <title>服务异常</title>
    <desc>Created with Sketch.</desc>
    <defs></defs>
    <g id="切图" stroke="none" stroke-width="1" fill="none" fill-rule="evenodd">
        <g id="服务异常">
            <g id="Page-1" transform="translate(23.000000, 31.000000)">
                <path d="M71.0311,137.0547 C71.0311,137.0547 76.9911,141.9727 83.9341,139.8727 C90.6441,137.8437 91.0501,133.8707 91.0501,133.8707 L101.2001,131.1787 C101.2001,131.1787 100.0771,141.2497 88.8291,146.3017 C77.5811,151.3537 67.7271,141.0347 67.7271,141.0347 L71.0311,137.0547 Z" id="Fill-1" fill="#EEEEEE"></path>
                <path d="M89.873,135.5202 C91.669,138.4682 95.514,139.4022 98.462,137.6062 C101.41,135.8102 102.344,131.9652 100.548,129.0172 C98.752,126.0692 94.907,125.1352 91.959,126.9312 C89.011,128.7272 88.077,132.5722 89.873,135.5202" id="Fill-3" fill="#DDDDDD"></path>
                <path d="M92.8676,178.7404 L80.8616,178.7404 C76.1356,178.7404 72.2686,174.8734 72.2686,170.1464 L72.2686,163.0754 C72.2686,158.3484 76.1356,154.4814 80.8616,154.4814 L92.8676,154.4814 C97.5946,154.4814 101.4616,158.3484 101.4616,163.0754 L101.4616,170.1464 C101.4616,174.8734 97.5946,178.7404 92.8676,178.7404" id="Fill-5" fill="#DDDDDD"></path>
                <path d="M65.7691,142.2558 C65.7691,142.2558 58.2901,140.3168 52.8841,145.1538 C47.6601,149.8288 48.9701,153.6008 48.9701,153.6008 L40.9091,160.3288 C40.9091,160.3288 37.6711,150.7268 45.7311,141.3958 C53.7901,132.0648 67.0821,137.2528 67.0821,137.2528 L65.7691,142.2558 Z" id="Fill-7" fill="#EEEEEE"></path>
                <path d="M82.0168,162.1439 L82.0168,162.1439 C81.2418,162.2369 80.5388,161.6849 80.4448,160.9099 L77.9778,140.4349 C77.8848,139.6599 78.4368,138.9569 79.2118,138.8629 L79.2118,138.8629 C79.9858,138.7699 80.6898,139.3219 80.7828,140.0969 L83.2508,160.5719 C83.3438,161.3469 82.7918,162.0509 82.0168,162.1439" id="Fill-9" fill="#CCCCCC"></path>
                <path d="M87.98,188.7666 C87.98,191.1046 77.333,192.9996 64.2,192.9996 C51.067,192.9996 40.42,191.1046 40.42,188.7666 C40.42,186.4286 51.067,184.5336 64.2,184.5336 C77.333,184.5336 87.98,186.4286 87.98,188.7666" id="Fill-11" fill="#EEEEEE"></path>
                <path d="M75.7358,139.7564 C76.2478,139.3104 78.8518,139.4454 78.9148,138.5334 C79.0958,135.9074 76.4698,134.7304 76.4698,134.7304 L72.3628,135.1494 L64.3168,135.2364 L56.5558,135.1524 L52.3368,134.7214 C52.3368,134.7214 49.3048,134.4544 49.4858,137.0804 C49.5428,137.9114 52.8818,137.7004 53.3578,139.5484 C48.2328,152.1364 46.1138,167.8074 46.1138,167.8074 L64.7128,167.8074 L65.1978,167.8074 L81.8808,167.8074 C81.8808,167.8074 79.2358,148.1634 75.7358,139.7564" id="Fill-13" fill="#EEEEEE"></path>
                <path d="M46.1101,167.8078 L81.8771,167.8078 C81.8771,167.8078 85.8471,188.4208 81.8771,188.6538 C77.9061,188.8878 72.4131,178.2868 64.8761,178.2308 C57.5391,178.1768 54.5521,186.7928 48.2471,188.6578 C41.9411,190.5228 46.1101,167.8078 46.1101,167.8078" id="Fill-15" fill="#CCCCCC"></path>
                <g id="Group-19" fill="#EEEEEE">
                    <path d="M135.4363,69.6306 C134.5843,107.0256 103.5783,136.6486 66.1833,135.7966 C28.7893,134.9436 -0.8347,103.9386 0.0183,66.5436 C0.8703,29.1486 31.8763,-0.4744 69.2703,0.3776 C106.6653,1.2306 136.2883,32.2356 135.4363,69.6306" id="Fill-17"></path>
                </g>
                <path d="M125.5416,42.9394 C124.9446,37.4214 115.9556,31.3764 110.2026,30.6604 C98.9866,29.2644 84.3086,27.7114 67.7066,27.3094 C49.8146,26.8764 37.2506,27.8064 24.6716,28.7134 C19.0456,29.1194 11.9936,34.3994 11.0726,39.7184 C9.1116,51.0324 4.7446,71.5104 7.4256,98.3954 C7.4886,99.0244 7.6636,100.4544 7.9046,102.0724 C17.2666,117.8024 33.4626,129.4934 52.7736,133.4714 C56.7066,133.8484 60.9206,133.9384 65.4416,133.6514 C80.9356,132.6694 92.6726,129.7714 101.4326,126.2504 C111.7246,120.5534 120.2726,112.3504 126.1216,102.4984 C127.9446,82.0874 126.9866,56.2914 125.5416,42.9394" id="Fill-20" fill="#DDDDDD"></path>
                <path d="M17.6917,110.6201 C17.7907,111.4351 18.0927,112.2101 18.5767,112.8511 C20.1207,114.8951 23.4067,118.7571 28.6877,122.6411 C35.7537,127.8391 47.9597,134.1531 65.9827,134.7131 C83.9707,134.9741 96.4517,129.2231 103.7467,124.3521 C109.1967,120.7141 112.6557,117.0071 114.2927,115.0331 C114.8057,114.4141 115.1437,113.6541 115.2797,112.8451 C120.6697,80.7211 118.7607,57.2811 117.4597,47.5251 C117.2027,45.6041 115.8107,44.0881 114.0057,43.7511 C105.1927,42.1041 85.6267,38.8111 68.1567,38.4131 C50.2957,38.0061 30.8787,40.3931 22.1057,41.6431 C20.2917,41.9011 18.8357,43.3501 18.4927,45.2531 C16.7487,54.9311 13.7687,78.2671 17.6917,110.6201 M65.8517,140.4581 C28.3377,139.2921 13.5577,115.4711 12.9477,114.4581 C12.9477,114.4581 12.7677,114.1901 12.6917,113.9131 C12.6507,113.7621 12.5477,113.3021 12.5477,113.3021 C8.3217,80.3511 11.5377,55.1811 13.6147,43.8701 C14.3437,39.9061 17.7937,36.8161 22.2017,36.1631 C32.3057,34.6661 51.3767,32.2831 68.2877,32.6691 C84.8607,33.0471 104.0507,36.3971 114.1677,38.3951 C118.5267,39.2561 121.8177,42.4891 122.3687,46.4701 C123.9367,57.8241 126.0187,83.0381 120.2957,115.7581 C120.2957,115.7581 120.2347,116.0511 120.1247,116.3451 C119.9947,116.6941 119.8437,116.8941 119.8437,116.8941 C119.1877,117.8791 103.3377,141.0021 65.8517,140.4581" id="Fill-22" fill="#DDDDDD"></path>
                <path d="M120.1695,47.1885 C119.7405,43.9995 117.4475,41.4735 114.4505,40.9115 C105.5625,39.2465 85.9435,35.9455 68.2225,35.5415 C50.1025,35.1285 30.6295,37.5235 21.7825,38.7875 C18.7695,39.2175 16.3745,41.6355 15.8015,44.7945 C14.0005,54.7255 11.0205,78.2095 14.9985,110.9925 C15.1615,112.3335 15.6655,113.6065 16.4615,114.6625 C20.5955,120.1435 35.5145,136.6405 65.8965,137.5845 C96.2895,138.0265 111.9455,122.2255 116.3245,116.9385 C117.1675,115.9205 117.7295,114.6715 117.9525,113.3395 C123.4185,80.7875 121.5165,57.1995 120.1695,47.1885" id="Fill-24" fill="#EEEEEE"></path>
                <path d="M61.6327,73.3715 C59.3747,71.7455 56.5607,71.4405 54.0987,72.2755 C52.5247,72.8095 51.0937,73.8005 50.0497,75.2405 C50.0447,75.2475 50.0387,75.2525 50.0337,75.2595 L42.1637,86.0605 C39.3837,89.2515 34.5677,89.8985 31.0697,87.3785 C27.3607,84.7085 26.5107,79.4885 29.1817,75.7795 L58.4317,35.4945 C46.9487,35.8945 31.1987,37.6425 23.5937,38.6745 C19.0797,39.2865 15.9927,42.1345 15.4927,46.2215 C11.1297,81.8345 14.4427,113.1425 14.4427,113.1425 C15.7407,115.0675 17.1637,116.8215 18.6487,118.4375 C22.8357,122.9925 27.5307,126.3455 31.5147,128.6815 C31.8307,128.3665 32.1427,128.0435 32.4107,127.6705 L45.9467,109.0915 L63.5207,84.9705 C66.1907,81.2615 65.3417,76.0425 61.6327,73.3715" id="Fill-26" fill="#FFFFFF" opacity="0.5"></path>
                <path d="M74.498,164 L54.169,164 C52.419,164 51,162.581 51,160.831 L51,132.169 C51,130.419 52.419,129 54.169,129 L74.498,129 C76.248,129 77.667,130.419 77.667,132.169 L77.667,160.831 C77.667,162.581 76.248,164 74.498,164" id="Fill-28" fill="#FFFFFF"></path>
                <path d="M49.9807,152.7751 C47.1077,150.8621 43.2277,151.6411 41.3147,154.5141 C39.4017,157.3871 40.1807,161.2671 43.0537,163.1801 C45.9267,165.0931 49.8067,164.3141 51.7197,161.4411 C53.6327,158.5681 52.8537,154.6881 49.9807,152.7751" id="Fill-30" fill="#DDDDDD"></path>
                <rect id="Rectangle-376" fill="#E9E6E6" x="55" y="139" width="20" height="4" rx="8"></rect>
                <rect id="Rectangle-376-Copy" fill="#E9E6E6" x="55" y="146" width="20" height="4" rx="8"></rect>
                <rect id="Rectangle-376-Copy-2" fill="#E9E6E6" x="55" y="153" width="20" height="4" rx="8"></rect>
            </g>
        </g>
    </g>
</svg>