<?xml version="1.0" encoding="UTF-8" standalone="no"?>
<svg width="182px" height="224px" viewBox="0 0 182 224" version="1.1" xmlns="http://www.w3.org/2000/svg" xmlns:xlink="http://www.w3.org/1999/xlink">
    <!-- Generator: Sketch 3.7.1 (28215) - http://www.bohemiancoding.com/sketch -->
    <title>服务异常</title>
    <desc>Created with Sketch.</desc>
    <defs>
        <polyline id="path-1" points="0 0.991 135.454 0.991 135.454 193 0 193"></polyline>
        <polyline id="path-3" points="0 0.991 135.454 0.991 135.454 193 0 193"></polyline>
    </defs>
    <g id="切图" stroke="none" stroke-width="1" fill="none" fill-rule="evenodd">
        <g id="服务异常">
            <g id="Page-1" transform="translate(23.000000, 31.000000)">
                <path d="M101.9707,179.5009 L89.9647,179.5009 C85.2387,179.5009 81.3717,175.6339 81.3717,170.9069 L81.3717,163.8359 C81.3717,159.1089 85.2387,155.2419 89.9647,155.2419 L101.9707,155.2419 C106.6977,155.2419 110.5647,159.1089 110.5647,163.8359 L110.5647,170.9069 C110.5647,175.6339 106.6977,179.5009 101.9707,179.5009" id="Fill-1" fill="#1C8DF6"></path>
                <path d="M36.535,154.9069 C36.535,154.9069 43.622,161.2639 50.587,160.0049 C57.553,158.7469 46.17,146.7279 44.95,146.8999 C43.731,147.0709 36.535,154.9069 36.535,154.9069" id="Fill-3" fill="#21A9F7"></path>
                <path d="M97.3523,152.8592 C97.3523,152.8592 90.2653,159.2162 83.3003,157.9572 C76.3343,156.6992 87.7173,144.6802 88.9373,144.8522 C90.1563,145.0232 97.3523,152.8592 97.3523,152.8592" id="Fill-5" fill="#21A9F7"></path>
                <g id="Group-9">
                    <mask id="mask-2" fill="white">
                        <use xlink:href="#path-1"></use>
                    </mask>
                    <g id="Clip-8"></g>
                    <path d="M88.8325,188.7712 C88.8325,191.1072 78.1975,193.0002 65.0785,193.0002 C51.9595,193.0002 41.3245,191.1072 41.3245,188.7712 C41.3245,186.4352 51.9595,184.5422 65.0785,184.5422 C78.1975,184.5422 88.8325,186.4352 88.8325,188.7712" id="Fill-7" fill="#D8D8D8" mask="url(#mask-2)"></path>
                </g>
                <path d="M93.6225,166.15 L59.8195,140.77 C58.9395,140.11 58.7605,138.85 59.4205,137.971 L59.4205,137.971 C60.0815,137.091 61.3405,136.912 62.2205,137.572 L96.0235,162.952 C96.9025,163.612 97.0825,164.872 96.4215,165.752 L96.4215,165.752 C95.7615,166.631 94.5015,166.81 93.6225,166.15" id="Fill-10" fill="#303131"></path>
                <path d="M46.9884,167.8124 L82.7554,167.8124 C82.7554,167.8124 86.7254,188.4254 82.7554,188.6584 C78.7844,188.8924 73.2914,178.2914 65.7544,178.2354 C58.4174,178.1814 55.4304,186.7974 49.1254,188.6624 C42.8194,190.5274 46.9884,167.8124 46.9884,167.8124" id="Fill-12" fill="#303131"></path>
                <g id="Group-16">
                    <mask id="mask-4" fill="white">
                        <use xlink:href="#path-3"></use>
                    </mask>
                    <g id="Clip-15"></g>
                    <path d="M135.4363,70.2614 C134.5843,107.6564 103.5783,137.2794 66.1833,136.4274 C28.7893,135.5744 -0.8347,104.5694 0.0183,67.1744 C0.8703,29.7794 31.8763,0.1564 69.2703,1.0084 C106.6653,1.8614 136.2883,32.8664 135.4363,70.2614" id="Fill-14" fill="#21A9F7" mask="url(#mask-4)"></path>
                </g>
                <path d="M125.5417,43.5702 C124.9447,38.0522 115.9557,32.0072 110.2027,31.2912 C98.9867,29.8952 84.3087,28.3422 67.7067,27.9402 C49.8147,27.5072 37.2507,28.4372 24.6717,29.3442 C19.0457,29.7502 11.9937,35.0302 11.0727,40.3492 C9.1117,51.6632 4.7447,72.1412 7.4257,99.0262 C7.4887,99.6552 7.6637,101.0852 7.9047,102.7032 C17.2667,118.4332 33.4627,130.1242 52.7737,134.1022 C56.7067,134.4792 60.9207,134.5692 65.4417,134.2822 C80.9357,133.3002 92.6727,130.4022 101.4327,126.8812 C111.7247,121.1842 120.2727,112.9812 126.1217,103.1292 C127.9447,82.7182 126.9867,56.9222 125.5417,43.5702" id="Fill-17" fill="#1365B5"></path>
                <path d="M17.6917,111.2509 C17.7907,112.0659 18.0927,112.8409 18.5767,113.4819 C20.1207,115.5259 23.4067,119.3879 28.6877,123.2719 C35.7537,128.4699 47.9597,134.7839 65.9827,135.3439 C83.9707,135.6049 96.4517,129.8539 103.7467,124.9829 C109.1967,121.3449 112.6557,117.6379 114.2927,115.6639 C114.8057,115.0449 115.1437,114.2849 115.2797,113.4759 C120.6697,81.3519 118.7607,57.9119 117.4597,48.1559 C117.2027,46.2349 115.8107,44.7189 114.0057,44.3819 C105.1927,42.7349 85.6267,39.4419 68.1567,39.0439 C50.2957,38.6369 30.8787,41.0239 22.1057,42.2739 C20.2917,42.5319 18.8357,43.9809 18.4927,45.8839 C16.7487,55.5619 13.7687,78.8979 17.6917,111.2509 M65.8517,141.0889 C28.3377,139.9229 13.5577,116.1019 12.9477,115.0889 C12.9477,115.0889 12.7677,114.8209 12.6917,114.5439 C12.6507,114.3929 12.5477,113.9329 12.5477,113.9329 C8.3217,80.9819 11.5377,55.8119 13.6147,44.5009 C14.3437,40.5369 17.7937,37.4469 22.2017,36.7939 C32.3057,35.2969 51.3767,32.9139 68.2877,33.2999 C84.8607,33.6779 104.0507,37.0279 114.1677,39.0259 C118.5267,39.8869 121.8177,43.1199 122.3687,47.1009 C123.9367,58.4549 126.0187,83.6689 120.2957,116.3889 C120.2957,116.3889 120.2347,116.6819 120.1247,116.9759 C119.9947,117.3249 119.8437,117.5249 119.8437,117.5249 C119.1877,118.5099 103.3377,141.6329 65.8517,141.0889" id="Fill-19" fill="#1365B5"></path>
                <path d="M120.1695,47.8194 C119.7405,44.6304 117.4475,42.1044 114.4505,41.5424 C105.5625,39.8774 85.9435,36.5764 68.2225,36.1724 C50.1025,35.7594 30.6295,38.1544 21.7825,39.4184 C18.7695,39.8484 16.3745,42.2664 15.8015,45.4254 C14.0005,55.3564 11.0205,78.8404 14.9985,111.6234 C15.1615,112.9644 15.6655,114.2374 16.4615,115.2934 C20.5955,120.7744 35.5145,137.2714 65.8965,138.2154 C96.2895,138.6574 111.9455,122.8564 116.3245,117.5694 C117.1675,116.5514 117.7295,115.3024 117.9525,113.9704 C123.4185,81.4184 121.5165,57.8304 120.1695,47.8194" id="Fill-21" fill="#1365B5"></path>
                <path d="M61.6327,74.0023 C59.3747,72.3763 56.5607,72.0713 54.0987,72.9063 C52.5247,73.4403 51.0937,74.4313 50.0497,75.8713 C50.0447,75.8783 50.0387,75.8833 50.0337,75.8903 L42.1637,86.6913 C39.3837,89.8823 34.5677,90.5293 31.0697,88.0093 C27.3607,85.3393 26.5107,80.1193 29.1817,76.4103 L58.4317,36.1253 C46.9487,36.5253 31.1987,38.2733 23.5937,39.3053 C19.0797,39.9173 15.9927,42.7653 15.4927,46.8523 C11.1297,82.4653 14.4427,113.7733 14.4427,113.7733 C15.7407,115.6983 17.1637,117.4523 18.6487,119.0683 C22.8357,123.6233 27.5307,126.9763 31.5147,129.3123 C31.8307,128.9973 32.1427,128.6743 32.4107,128.3013 L45.9467,109.7223 L63.5207,85.6013 C66.1907,81.8923 65.3417,76.6733 61.6327,74.0023" id="Fill-23" fill="#FFFFFF" opacity="0.1"></path>
                <path d="M86.3785143,165.417989 L44.308418,165.417989 C41.6217156,165.417989 39.4235045,163.38925 39.4235045,160.90968 L39.4235045,118.874203 C39.4235045,116.394633 41.6217156,114.365893 44.308418,114.365893 L86.3785143,114.365893 C89.0652167,114.365893 91.2634277,116.394633 91.2634277,118.874203 L91.2634277,160.90968 C91.2634277,163.38925 89.0652167,165.417989 86.3785143,165.417989" id="Fill-27" fill="#F96464"></path>
                <path d="M40.0556123,165.417989 C39.423016,162.403057 52.3436122,155.428703 66.3095799,155.428703 C80.2755476,155.428703 89.6435904,160.42391 90.6315642,165.417989" id="Fill-29" fill="#DF3F3F"></path>
                <path d="M40.0556123,164.640081 C40.6845449,172.077664 50.6778567,182.110907 64.6438244,182.110907 C78.6097921,182.110907 89.9208093,174.269829 90.6315642,164.640081" id="Fill-31" fill="#F96464"></path>
                <path d="M65.7139868,131.790735 C64.9140822,131.790735 64.2643887,132.384704 64.2643887,133.113924 L64.2643887,134.037 L62.2298223,134.037 C61.5618103,134.037 60.9976028,134.565599 60.9976028,135.191127 C60.9976028,135.815528 61.5618103,136.344127 62.2298223,136.344127 L64.2643887,136.344127 L64.2643887,137.266077 L62.2298223,137.266077 C61.5508193,137.266077 60.9976028,137.791295 60.9976028,138.435983 C60.9976028,139.053621 61.5618103,139.574331 62.2298223,139.574331 L63.4864663,139.574331 L60.6263494,143.374836 C60.1842647,144.038684 60.3723339,144.845672 61.0281335,145.248038 C61.6033321,145.650405 62.5241383,145.518537 62.9991961,144.935838 L65.7139868,141.306649 L68.4092378,144.911042 C68.9013929,145.514029 69.8026594,145.648151 70.4364769,145.235641 C71.0886129,144.811859 71.2534787,144.000364 70.8101728,143.387234 L67.9549409,139.574331 L69.1969301,139.574331 C69.8771543,139.574331 70.4303708,139.063765 70.4303708,138.435983 C70.4303708,137.791295 69.8771543,137.266077 69.1969301,137.266077 L67.1635849,137.266077 L67.1635849,136.344127 L69.1969301,136.344127 C69.8771543,136.344127 70.4303708,135.826799 70.4303708,135.191127 C70.4303708,134.554328 69.8771543,134.037 69.1969301,134.037 L67.1635849,134.037 L67.1635849,133.113924 C67.1635849,132.384704 66.5138914,131.790735 65.7139868,131.790735" id="Fill-37" fill="#FFBC00"></path>
                <path d="M99.8464,142.8053 C101.7144,147.4183 99.4894,152.6723 94.8764,154.5403 C90.2634,156.4083 85.0094,154.1833 83.1414,149.5703 C81.2734,144.9573 83.4984,139.7033 88.1114,137.8353 C92.7244,135.9673 97.9784,138.1923 99.8464,142.8053" id="Fill-39" fill="#F1D1B5"></path>
                <path d="M49.179,143.5151 C51.047,148.1281 48.822,153.3821 44.209,155.2501 C39.596,157.1181 34.342,154.8931 32.474,150.2801 C30.606,145.6671 32.831,140.4131 37.444,138.5451 C42.057,136.6771 47.311,138.9021 49.179,143.5151" id="Fill-41" fill="#F1D1B5"></path>
            </g>
        </g>
    </g>
</svg>