<?xml version="1.0" encoding="UTF-8" standalone="no"?>
<svg width="182px" height="224px" viewBox="0 0 182 224" version="1.1" xmlns="http://www.w3.org/2000/svg" xmlns:xlink="http://www.w3.org/1999/xlink">
    <!-- Generator: Sketch 3.7.1 (28215) - http://www.bohemiancoding.com/sketch -->
    <title>服务异常</title>
    <desc>Created with Sketch.</desc>
    <defs>
        <polyline id="path-1" points="0 0.261 135.454 0.261 135.454 192 0 192"></polyline>
    </defs>
    <g id="切图" stroke="none" stroke-width="1" fill="none" fill-rule="evenodd">
        <g id="服务异常">
            <g id="小哥" transform="translate(23.000000, 32.000000)">
                <path d="M89.116,187.7666 C89.116,190.1046 78.469,191.9996 65.336,191.9996 C52.203,191.9996 41.556,190.1046 41.556,187.7666 C41.556,185.4286 52.203,183.5336 65.336,183.5336 C78.469,183.5336 89.116,185.4286 89.116,187.7666" id="Fill-1" fill="#D8D8D8"></path>
                <path d="M96.005,177.2872 L83.999,177.2872 C79.273,177.2872 75.406,173.4202 75.406,168.6932 L75.406,161.6222 C75.406,156.8952 79.273,153.0282 83.999,153.0282 L96.005,153.0282 C100.732,153.0282 104.599,156.8952 104.599,161.6222 L104.599,168.6932 C104.599,173.4202 100.732,177.2872 96.005,177.2872" id="Fill-3" fill="#1C8DF6"></path>
                <path d="M87.4417,161.9032 L87.4417,161.9032 C86.7157,162.1902 85.8957,161.8342 85.6087,161.1082 L78.0287,141.9282 C77.7427,141.2022 78.0977,140.3822 78.8237,140.0952 C79.5497,139.8082 80.3697,140.1642 80.6567,140.8902 L88.2367,160.0702 C88.5227,160.7962 88.1677,161.6162 87.4417,161.9032" id="Fill-5" fill="#303131"></path>
                <path d="M76.944,139.3909 C77.456,138.9449 79.988,138.4449 80.05,137.5329 C80.232,134.9079 77.606,133.7299 77.606,133.7299 L73.499,134.1489 L65.453,134.2359 L57.692,134.1519 L53.472,133.7219 C53.472,133.7219 50.846,134.8989 51.027,137.5249 C51.085,138.3549 54.018,136.6999 54.494,138.5489 C49.369,151.1369 47.25,166.8079 47.25,166.8079 L65.849,166.8079 L66.333,166.8079 L83.016,166.8079 C83.016,166.8079 80.899,148.0519 76.944,139.3909" id="Fill-7" fill="#21A9F7"></path>
                <path d="M71.5529,158.2682 C71.1869,157.6332 70.3769,157.4172 69.7449,157.7842 C69.7339,157.7892 69.7229,157.7962 69.7169,157.8042 C67.1359,159.2632 63.8599,158.3742 62.3759,155.8042 C60.8849,153.2202 61.7689,149.9162 64.3529,148.4242 C66.5429,147.1622 69.2429,147.6042 70.9259,149.3372 L65.8289,152.2942 L65.8309,152.2942 C65.1959,152.6622 64.9799,153.4702 65.3479,154.1042 C65.7119,154.7382 66.5199,154.9562 67.1549,154.5912 L74.5929,150.2862 C74.4389,149.8752 74.2509,149.4692 74.0279,149.0762 C71.8039,145.2292 66.8779,143.9082 63.0299,146.1332 C59.1779,148.3542 57.8579,153.2762 60.0829,157.1272 C62.3029,160.9722 67.2129,162.2922 71.0599,160.0862 C71.0639,160.0832 71.0659,160.0822 71.0699,160.0792 L71.0729,160.0782 L71.0789,160.0742 C71.4679,159.8492 71.8319,159.5982 72.1649,159.3212 L71.5559,158.2682 L71.5529,158.2682 Z" id="Fill-9" fill="#FFFFFF"></path>
                <path d="M74.6977,154.2002 L74.0317,153.0512 L71.7357,154.3772 L73.0627,156.6712 L74.2107,156.0112 C74.8437,155.6442 75.0607,154.8342 74.6977,154.2002" id="Fill-11" fill="#FFFFFF"></path>
                <path d="M47.246,166.8078 L83.013,166.8078 C83.013,166.8078 86.983,187.4208 83.013,187.6538 C79.042,187.8878 73.549,177.2868 66.012,177.2308 C58.675,177.1768 55.688,185.7928 49.383,187.6578 C43.077,189.5228 47.246,166.8078 47.246,166.8078" id="Fill-13" fill="#303131"></path>
                <g id="Group-17">
                    <mask id="mask-2" fill="white">
                        <use xlink:href="#path-1"></use>
                    </mask>
                    <g id="Clip-16"></g>
                    <path d="M135.4363,69.5318 C134.5843,106.9268 103.5783,136.5498 66.1833,135.6978 C28.7893,134.8448 -0.8347,103.8398 0.0183,66.4448 C0.8703,29.0498 31.8763,-0.5732 69.2703,0.2788 C106.6653,1.1318 136.2883,32.1368 135.4363,69.5318" id="Fill-15" fill="#21A9F7" mask="url(#mask-2)"></path>
                </g>
                <path d="M125.5417,42.8407 C124.9447,37.3227 115.9557,31.2777 110.2027,30.5617 C98.9867,29.1657 84.3087,27.6127 67.7067,27.2107 C49.8147,26.7777 37.2507,27.7077 24.6717,28.6147 C19.0457,29.0207 11.9937,34.3007 11.0727,39.6197 C9.1117,50.9337 4.7447,71.4117 7.4257,98.2967 C7.4887,98.9257 7.6637,100.3557 7.9047,101.9737 C17.2667,117.7037 33.4627,129.3947 52.7737,133.3727 C56.7067,133.7497 60.9207,133.8397 65.4417,133.5527 C80.9357,132.5707 92.6727,129.6727 101.4327,126.1517 C111.7247,120.4547 120.2727,112.2517 126.1217,102.3997 C127.9447,81.9887 126.9867,56.1927 125.5417,42.8407" id="Fill-18" fill="#1365B5"></path>
                <path d="M17.6917,110.5213 C17.7907,111.3363 18.0927,112.1113 18.5767,112.7523 C20.1207,114.7963 23.4067,118.6583 28.6877,122.5423 C35.7537,127.7403 47.9597,134.0543 65.9827,134.6143 C83.9707,134.8753 96.4517,129.1243 103.7467,124.2533 C109.1967,120.6153 112.6557,116.9083 114.2927,114.9343 C114.8057,114.3153 115.1437,113.5553 115.2797,112.7463 C120.6697,80.6223 118.7607,57.1823 117.4597,47.4263 C117.2027,45.5053 115.8107,43.9893 114.0057,43.6523 C105.1927,42.0053 85.6267,38.7123 68.1567,38.3143 C50.2957,37.9073 30.8787,40.2943 22.1057,41.5443 C20.2917,41.8023 18.8357,43.2513 18.4927,45.1543 C16.7487,54.8323 13.7687,78.1683 17.6917,110.5213 M65.8517,140.3593 C28.3377,139.1933 13.5577,115.3723 12.9477,114.3593 C12.9477,114.3593 12.7677,114.0913 12.6917,113.8143 C12.6507,113.6633 12.5477,113.2033 12.5477,113.2033 C8.3217,80.2523 11.5377,55.0823 13.6147,43.7713 C14.3437,39.8073 17.7937,36.7173 22.2017,36.0643 C32.3057,34.5673 51.3767,32.1843 68.2877,32.5703 C84.8607,32.9483 104.0507,36.2983 114.1677,38.2963 C118.5267,39.1573 121.8177,42.3903 122.3687,46.3713 C123.9367,57.7253 126.0187,82.9393 120.2957,115.6593 C120.2957,115.6593 120.2347,115.9523 120.1247,116.2463 C119.9947,116.5953 119.8437,116.7953 119.8437,116.7953 C119.1877,117.7803 103.3377,140.9033 65.8517,140.3593" id="Fill-20" fill="#1365B5"></path>
                <path d="M120.1695,47.0898 C119.7405,43.9008 117.4475,41.3748 114.4505,40.8128 C105.5625,39.1478 85.9435,35.8468 68.2225,35.4428 C50.1025,35.0298 30.6295,37.4248 21.7825,38.6888 C18.7695,39.1188 16.3745,41.5368 15.8015,44.6958 C14.0005,54.6268 11.0205,78.1108 14.9985,110.8938 C15.1615,112.2348 15.6655,113.5078 16.4615,114.5638 C20.5955,120.0448 35.5145,136.5418 65.8965,137.4858 C96.2895,137.9278 111.9455,122.1268 116.3245,116.8398 C117.1675,115.8218 117.7295,114.5728 117.9525,113.2408 C123.4185,80.6888 121.5165,57.1008 120.1695,47.0898" id="Fill-22" fill="#1365B5"></path>
                <path d="M61.6327,73.2728 C59.3747,71.6468 56.5607,71.3418 54.0987,72.1768 C52.5247,72.7108 51.0937,73.7018 50.0497,75.1418 C50.0447,75.1488 50.0387,75.1538 50.0337,75.1608 L42.1637,85.9628 C39.3837,89.1528 34.5677,89.7998 31.0697,87.2798 C27.3607,84.6098 26.5107,79.3898 29.1817,75.6808 L58.4317,35.3958 C46.9487,35.7958 31.1987,37.5438 23.5937,38.5758 C19.0797,39.1878 15.9927,42.0358 15.4927,46.1228 C11.1297,81.7358 14.4427,113.0438 14.4427,113.0438 C15.7407,114.9688 17.1637,116.7228 18.6487,118.3388 C22.8357,122.8938 27.5307,126.2468 31.5147,128.5828 C31.8307,128.2678 32.1427,127.9448 32.4107,127.5718 L45.9467,108.9928 L63.5207,84.8718 C66.1907,81.1628 65.3417,75.9438 61.6327,73.2728" id="Fill-24" fill="#FFFFFF" opacity="0.1"></path>
                <path d="M34.8194,147.5657 C34.8194,153.6827 39.7774,158.6407 45.8944,158.6407 C52.0114,158.6407 56.9694,153.6827 56.9694,147.5657" id="Fill-26" fill="#F1D1B5"></path>
                <path d="M75.9861,147.5657 C75.9861,153.6827 80.9441,158.6407 87.0611,158.6407 C93.1781,158.6407 98.1361,153.6827 98.1361,147.5657" id="Fill-28" fill="#F1D1B5"></path>
                <path d="M33.3348011,149.749566 C33.3348011,132.188543 48.3413696,117.952552 66.8529515,117.952552 C85.3660918,117.952552 100.37266,132.188543 100.37266,149.749566" id="Fill-30" fill="#F9AE06"></path>
                <polygon id="Fill-32" fill="#FFFFFF" points="91.2185419 126.815514 88.545755 123.283498 97.9651859 116.869984 100.637973 120.402"></polygon>
                <path d="M99.8036213,118.794815 C98.4539808,119.714411 96.5744583,119.420199 95.6050861,118.139862 C94.6372723,116.859525 94.9458506,115.076515 96.2954911,114.158397 C97.6451316,113.238802 99.524654,113.531535 100.494026,114.811872 C101.46184,116.092209 101.153262,117.87522 99.8036213,118.794815" id="Fill-34" fill="#FFFFFF"></path>
                <path d="M101.968757,122.042518 C100.619116,122.962114 98.7395938,122.667902 97.7702215,121.387565 C96.8024077,120.107228 97.110986,118.324218 98.4606265,117.406101 C99.810267,116.486505 101.689789,116.779238 102.659162,118.059575 C103.626976,119.339913 103.318397,121.122923 101.968757,122.042518" id="Fill-36" fill="#FFFFFF"></path>
                <path d="M102.2774,150.2648 L31.6464,150.2648 C30.6514,150.2648 29.8374,149.4508 29.8374,148.4548 L29.8374,148.4548 C29.8374,147.4598 30.6514,146.6458 31.6464,146.6458 L102.2774,146.6458 C103.2724,146.6458 104.0874,147.4598 104.0874,148.4548 L104.0874,148.4548 C104.0874,149.4508 103.2724,150.2648 102.2774,150.2648" id="Fill-44" fill="#FCEDE3"></path>
                <path d="M94.3377564,120.895681 C97.4235395,123.8718 96.6255997,129.362761 92.556418,133.160898 C88.4856778,136.959035 82.6850289,137.624337 79.5992458,134.648218 C76.5134626,131.672099 77.3114025,126.181138 81.3805842,122.383001 C85.4513244,118.584864 91.2519733,117.919562 94.3377564,120.895681" id="Fill-46" fill="#F9AE06"></path>
            </g>
        </g>
    </g>
</svg>