<?xml version="1.0" encoding="UTF-8" standalone="no"?>
<svg width="182px" height="224px" viewBox="0 0 182 224" version="1.1" xmlns="http://www.w3.org/2000/svg" xmlns:xlink="http://www.w3.org/1999/xlink">
    <!-- Generator: Sketch 3.7.1 (28215) - http://www.bohemiancoding.com/sketch -->
    <title>服务异常</title>
    <desc>Created with Sketch.</desc>
    <defs>
        <polyline id="path-1" points="0 0.656 135.84 0.656 135.84 195 0 195"></polyline>
        <polyline id="path-3" points="0 0.656 135.84 0.656 135.84 195 0 195"></polyline>
        <polyline id="path-5" points="0 0.656 135.84 0.656 135.84 195 0 195"></polyline>
    </defs>
    <g id="切图" stroke="none" stroke-width="1" fill="none" fill-rule="evenodd">
        <g id="服务异常">
            <g id="Page-1" transform="translate(23.000000, 29.000000)">
                <path d="M92.7942,166.1785 L73.8922,147.2255 C73.2372,146.5695 73.2392,145.4965 73.8952,144.8415 L76.6362,142.1085 C77.2922,141.4535 78.3652,141.4555 79.0202,142.1115 L97.9222,161.0645 C98.5772,161.7205 98.5752,162.7935 97.9192,163.4475 L95.1782,166.1815 C94.5212,166.8365 93.4492,166.8345 92.7942,166.1785" id="Fill-1" fill="#21A9F7"></path>
                <g id="Group-5">
                    <mask id="mask-2" fill="white">
                        <use xlink:href="#path-1"></use>
                    </mask>
                    <g id="Clip-4"></g>
                    <path d="M91.4328,190.6622 C91.4328,193.0582 80.5238,195.0002 67.0668,195.0002 C53.6088,195.0002 42.6998,193.0582 42.6998,190.6622 C42.6998,188.2662 53.6088,186.3242 67.0668,186.3242 C80.5238,186.3242 91.4328,188.2662 91.4328,190.6622" id="Fill-3" fill="#D8D8D8" mask="url(#mask-2)"></path>
                </g>
                <path d="M67.4088,149.5736 C39.6338,149.3816 22.7238,134.4966 15.1848,125.7656 C12.1948,122.3036 10.2168,118.0786 9.5318,113.5566 C4.1178,77.8486 10.9418,58.9676 11.2248,57.9896 L11.6778,56.4286 L13.4718,56.1396 C13.7548,56.0946 42.0808,51.5826 67.6478,51.5826 C92.5848,51.5826 121.5238,56.0926 121.8128,56.1386 L123.6158,56.4216 L124.0708,57.9896 C124.3508,58.9586 130.4918,80.7936 125.2728,116.2816 C124.5008,121.5286 121.9818,126.3676 118.1498,130.0356 C110.0768,137.7666 93.6008,149.3926 67.4088,149.5736" id="Fill-6" fill="#00448F"></path>
                <path d="M96.998,182.4402 L84.992,182.4402 C80.266,182.4402 76.399,178.5732 76.399,173.8462 L76.399,166.7752 C76.399,162.0482 80.266,158.1812 84.992,158.1812 L96.998,158.1812 C101.725,158.1812 105.592,162.0482 105.592,166.7752 L105.592,173.8462 C105.592,178.5732 101.725,182.4402 96.998,182.4402" id="Fill-8" fill="#1C8DF6"></path>
                <path d="M88.0834,165.049 L88.0834,165.049 C87.3574,165.336 86.5374,164.98 86.2504,164.254 L78.6704,145.074 C78.3844,144.348 78.7394,143.528 79.4654,143.241 C80.1914,142.954 81.0114,143.31 81.2984,144.036 L88.8784,163.216 C89.1644,163.942 88.8094,164.762 88.0834,165.049" id="Fill-10" fill="#303131"></path>
                <path d="M78.4521,142.2865 C78.9641,141.8405 81.4961,141.3405 81.5581,140.4285 C81.7401,137.8035 79.1141,136.6255 79.1141,136.6255 L75.0071,137.0445 L66.9611,137.1315 L59.2001,137.0475 L54.9801,136.6175 C54.9801,136.6175 52.3541,137.7945 52.5351,140.4205 C52.5931,141.2505 54.6561,142.6055 55.1041,143.0425 C49.6101,154.5615 48.7581,169.7035 48.7581,169.7035 L67.3571,169.7035 L67.8411,169.7035 L84.5241,169.7035 C84.5241,169.7035 82.4071,150.9475 78.4521,142.2865" id="Fill-12" fill="#21A9F7"></path>
                <path d="M48.7577,169.7034 L84.5247,169.7034 C84.5247,169.7034 88.4947,190.3164 84.5247,190.5494 C80.5537,190.7834 75.0607,180.1824 67.5237,180.1264 C60.1867,180.0724 57.1997,188.6884 50.8947,190.5534 C44.5887,192.4184 48.7577,169.7034 48.7577,169.7034" id="Fill-14" fill="#303131"></path>
                <g id="Group-18">
                    <mask id="mask-4" fill="white">
                        <use xlink:href="#path-3"></use>
                    </mask>
                    <g id="Clip-17"></g>
                    <path d="M135.8405,75.7209 C135.8405,113.2319 105.4315,143.6409 67.9205,143.6409 C30.4085,143.6409 0.0005,113.2319 0.0005,75.7209 C0.0005,38.2099 30.4085,7.8009 67.9205,7.8009 C105.4315,7.8009 135.8405,38.2099 135.8405,75.7209" id="Fill-16" fill="#21A9F7" mask="url(#mask-4)"></path>
                </g>
                <path d="M54.6155,133.5427 C54.6155,138.1947 50.8445,141.9667 46.1915,141.9667 C41.5395,141.9667 37.7685,138.1947 37.7685,133.5427 C37.7685,128.8907 41.5395,125.1187 46.1915,125.1187 C50.8445,125.1187 54.6155,128.8907 54.6155,133.5427" id="Fill-19" fill="#F1D1B5"></path>
                <path d="M59.6633,150.115 L41.4013,155.289 C39.4853,155.832 37.4733,154.708 36.9303,152.792 L36.9303,152.792 C36.3883,150.876 37.5113,148.864 39.4273,148.321 L57.6893,143.147 C59.6053,142.604 61.6173,143.728 62.1603,145.644 L62.1603,145.644 C62.7033,147.56 61.5793,149.572 59.6633,150.115" id="Fill-21" fill="#21A9F7"></path>
                <path d="M36.9698,150.8447 L41.4858,136.9157 C42.0998,135.0217 44.1528,133.9737 46.0468,134.5877 L46.0468,134.5877 C47.9418,135.2027 48.9888,137.2547 48.3748,139.1497 L43.8588,153.0787 C43.2448,154.9727 41.1918,156.0207 39.2978,155.4057 L39.2978,155.4057 C37.4028,154.7917 36.3558,152.7397 36.9698,150.8447" id="Fill-23" fill="#21A9F7"></path>
                <path d="M114.0397,72.7389 C114.0397,76.9819 110.6007,80.4209 106.3577,80.4209 C102.1147,80.4209 98.6757,76.9819 98.6757,72.7389 C98.6757,68.4959 102.1147,65.0569 106.3577,65.0569 C110.6007,65.0569 114.0397,68.4959 114.0397,72.7389" id="Fill-25" fill="#FF6F6C"></path>
                <g id="Group-29">
                    <mask id="mask-6" fill="white">
                        <use xlink:href="#path-5"></use>
                    </mask>
                    <g id="Clip-28"></g>
                    <path d="M106.3691,0.6556 C91.0041,0.6556 95.9271,32.5876 103.8831,59.2886 C103.8831,59.7786 104.9961,60.1756 106.3691,60.1756 C107.7421,60.1756 108.8551,59.7786 108.8551,59.2886 L108.8551,59.2886 C116.8111,32.5876 120.3371,0.6556 106.3691,0.6556" id="Fill-27" fill="#FF6F6C" mask="url(#mask-6)"></path>
                </g>
            </g>
        </g>
    </g>
</svg>