<?xml version="1.0" encoding="UTF-8" standalone="no"?>
<svg width="182px" height="224px" viewBox="0 0 182 224" version="1.1" xmlns="http://www.w3.org/2000/svg" xmlns:xlink="http://www.w3.org/1999/xlink">
    <!-- Generator: Sketch 3.7.1 (28215) - http://www.bohemiancoding.com/sketch -->
    <title>服务异常</title>
    <desc>Created with Sketch.</desc>
    <defs>
        <polyline id="path-1" points="0 0.386 164.508 0.386 164.508 191 0 191"></polyline>
    </defs>
    <g id="切图" stroke="none" stroke-width="1" fill="none" fill-rule="evenodd">
        <g id="服务异常">
            <g id="Page-1" transform="translate(9.000000, 33.000000)">
                <path d="M89.625,186.8397 C89.625,189.1377 79.162,190.9997 66.256,190.9997 C53.349,190.9997 42.886,189.1377 42.886,186.8397 C42.886,184.5417 53.349,182.6797 66.256,182.6797 C79.162,182.6797 89.625,184.5417 89.625,186.8397" id="Fill-1" fill="#D8D8D8"></path>
                <path d="M96.499,179.8934 L84.493,179.8934 C79.767,179.8934 75.9,176.0264 75.9,171.2994 L75.9,164.2284 C75.9,159.5014 79.767,155.6344 84.493,155.6344 L96.499,155.6344 C101.226,155.6344 105.093,159.5014 105.093,164.2284 L105.093,171.2994 C105.093,176.0264 101.226,179.8934 96.499,179.8934" id="Fill-3" fill="#1C8DF6"></path>
                <path d="M90.7833,139.7423 C90.7833,139.7423 82.2833,143.4923 77.5333,139.4093 L76.3663,142.3253 L77.7003,146.1593 C77.7003,146.1593 84.5433,152.8253 92.7003,148.4923 C92.9503,147.2423 90.7833,139.7423 90.7833,139.7423" id="Fill-5" fill="#21A9F7"></path>
                <path d="M86.3018,161.2933 L86.3018,161.2933 C85.5788,161.5793 84.7538,161.2213 84.4688,160.4983 L76.8888,141.3183 C76.6038,140.5953 76.9608,139.7703 77.6838,139.4853 L77.6838,139.4853 C78.4068,139.1993 79.2318,139.5573 79.5168,140.2803 L87.0968,159.4603 C87.3818,160.1833 87.0248,161.0073 86.3018,161.2933" id="Fill-7" fill="#303131"></path>
                <path d="M77.7334,139.5153 C78.2454,139.0693 80.7774,138.5693 80.8394,137.6573 C81.0214,135.0323 78.3954,133.8543 78.3954,133.8543 L74.2884,134.2733 L66.2424,134.3603 L58.4814,134.2763 L54.2614,133.8463 C54.2614,133.8463 51.6354,135.0233 51.8164,137.6493 C51.8744,138.4793 54.8064,136.8243 55.2834,138.6733 C50.1584,151.2613 48.0394,166.9323 48.0394,166.9323 L66.6384,166.9323 L67.1224,166.9323 L83.8054,166.9323 C83.8054,166.9323 81.6884,148.1763 77.7334,139.5153" id="Fill-9" fill="#21A9F7"></path>
                <path d="M72.3423,158.3926 C71.9763,157.7576 71.1663,157.5416 70.5343,157.9086 C70.5233,157.9136 70.5123,157.9206 70.5063,157.9286 C67.9263,159.3876 64.6493,158.4986 63.1653,155.9286 C61.6743,153.3446 62.5583,150.0406 65.1423,148.5486 C67.3323,147.2866 70.0323,147.7286 71.7153,149.4616 L66.6183,152.4186 L66.6203,152.4186 C65.9853,152.7866 65.7693,153.5946 66.1373,154.2286 C66.5013,154.8626 67.3093,155.0806 67.9443,154.7156 L75.3823,150.4106 C75.2283,149.9996 75.0403,149.5936 74.8173,149.2006 C72.5933,145.3536 67.6673,144.0326 63.8193,146.2576 C59.9673,148.4786 58.6473,153.4006 60.8723,157.2516 C63.0923,161.0966 68.0023,162.4166 71.8493,160.2106 C71.8533,160.2076 71.8553,160.2066 71.8593,160.2036 L71.8623,160.2026 L71.8683,160.1986 C72.2573,159.9736 72.6213,159.7226 72.9543,159.4456 L72.3453,158.3926 L72.3423,158.3926 Z" id="Fill-11" fill="#FFFFFF"></path>
                <path d="M75.4871,154.3247 L74.8211,153.1757 L72.5251,154.5017 L73.8521,156.7957 L75.0001,156.1357 C75.6331,155.7687 75.8501,154.9587 75.4871,154.3247" id="Fill-13" fill="#FFFFFF"></path>
                <path d="M48.1658,166.9322 L83.9328,166.9322 C83.9328,166.9322 87.9028,187.5452 83.9328,187.7782 C79.9618,188.0122 74.4688,177.4112 66.9318,177.3552 C59.5948,177.3012 56.6078,185.9172 50.3028,187.7822 C43.9968,189.6472 48.1658,166.9322 48.1658,166.9322" id="Fill-15" fill="#303131"></path>
                <g id="Group-19">
                    <mask id="mask-2" fill="white">
                        <use xlink:href="#path-1"></use>
                    </mask>
                    <g id="Clip-18"></g>
                    <path d="M135.4363,69.6563 C134.5843,107.0513 103.5783,136.6743 66.1833,135.8223 C28.7893,134.9693 -0.8347,103.9643 0.0183,66.5693 C0.8703,29.1743 31.8763,-0.4487 69.2703,0.4033 C106.6653,1.2563 136.2883,32.2613 135.4363,69.6563" id="Fill-17" fill="#21A9F7" mask="url(#mask-2)"></path>
                </g>
                <path d="M125.5417,42.9651 C124.9447,37.4471 115.9557,31.4021 110.2027,30.6861 C98.9867,29.2901 84.3087,27.7371 67.7067,27.3351 C49.8147,26.9021 37.2507,27.8321 24.6717,28.7391 C19.0457,29.1451 11.9937,34.4251 11.0727,39.7441 C9.1117,51.0581 4.7447,71.5361 7.4257,98.4211 C7.4887,99.0501 7.6637,100.4801 7.9047,102.0981 C17.2667,117.8281 33.4627,129.5191 52.7737,133.4971 C56.7067,133.8741 60.9207,133.9641 65.4417,133.6771 C80.9357,132.6951 92.6727,129.7971 101.4327,126.2761 C111.7247,120.5791 120.2727,112.3761 126.1217,102.5241 C127.9447,82.1131 126.9867,56.3171 125.5417,42.9651" id="Fill-20" fill="#1365B5"></path>
                <path d="M17.6917,110.6458 C17.7907,111.4608 18.0927,112.2358 18.5767,112.8768 C20.1207,114.9208 23.4067,118.7828 28.6877,122.6668 C35.7537,127.8648 47.9597,134.1788 65.9827,134.7388 C83.9707,134.9998 96.4517,129.2488 103.7467,124.3778 C109.1967,120.7398 112.6557,117.0328 114.2927,115.0588 C114.8057,114.4398 115.1437,113.6798 115.2797,112.8708 C120.6697,80.7468 118.7607,57.3068 117.4597,47.5508 C117.2027,45.6298 115.8107,44.1138 114.0057,43.7768 C105.1927,42.1298 85.6267,38.8368 68.1567,38.4388 C50.2957,38.0318 30.8787,40.4188 22.1057,41.6688 C20.2917,41.9268 18.8357,43.3758 18.4927,45.2788 C16.7487,54.9568 13.7687,78.2928 17.6917,110.6458 M68.2877,32.6948 C84.8607,33.0728 104.0507,36.4228 114.1677,38.4208 C118.5267,39.2818 121.8177,42.5148 122.3687,46.4958 C123.9367,57.8498 126.0187,83.0638 120.2957,115.7838 C120.2957,115.7838 120.2347,116.0768 120.1247,116.3708 C119.9947,116.7198 119.8437,116.9198 119.8437,116.9198 C119.1877,117.9048 103.3377,141.0278 65.8517,140.4838 C28.3377,139.3178 13.5577,115.4968 12.9477,114.4838 C12.9477,114.4838 12.7677,114.2158 12.6917,113.9388 C12.6507,113.7878 12.5477,113.3278 12.5477,113.3278 C8.3217,80.3768 11.5377,55.2068 13.6147,43.8958 C14.3437,39.9318 17.7937,36.8418 22.2017,36.1888" id="Fill-22" fill="#1365B5"></path>
                <path d="M120.1695,47.2142 C119.7405,44.0252 117.4475,41.4992 114.4505,40.9372 C105.5625,39.2722 85.9435,35.9712 68.2225,35.5672 C50.1025,35.1542 30.6295,37.5492 21.7825,38.8132 C18.7695,39.2432 16.3745,41.6612 15.8015,44.8202 C14.0005,54.7512 11.0205,78.2352 14.9985,111.0182 C15.1615,112.3592 15.6655,113.6322 16.4615,114.6882 C20.5955,120.1692 35.5145,136.6662 65.8965,137.6102 C96.2895,138.0522 111.9455,122.2512 116.3245,116.9642 C117.1675,115.9462 117.7295,114.6972 117.9525,113.3652 C123.4185,80.8132 121.5165,57.2252 120.1695,47.2142" id="Fill-24" fill="#1365B5"></path>
                <path d="M61.6327,73.3972 C59.3747,71.7712 56.5607,71.4662 54.0987,72.3012 C52.5247,72.8352 51.0937,73.8262 50.0497,75.2662 C50.0447,75.2732 50.0387,75.2782 50.0337,75.2852 L42.1637,86.0872 C39.3837,89.2772 34.5677,89.9242 31.0697,87.4042 C27.3607,84.7342 26.5107,79.5142 29.1817,75.8052 L58.4317,35.5202 C46.9487,35.9202 31.1987,37.6682 23.5937,38.7002 C19.0797,39.3122 15.9927,42.1602 15.4927,46.2472 C11.1297,81.8602 14.4427,113.1682 14.4427,113.1682 C15.7407,115.0932 17.1637,116.8472 18.6487,118.4632 C22.8357,123.0182 27.5307,126.3712 31.5147,128.7072 C31.8307,128.3922 32.1427,128.0692 32.4107,127.6962 L45.9467,109.1172 L63.5207,84.9962 C66.1907,81.2872 65.3417,76.0682 61.6327,73.3972" id="Fill-26" fill="#FFFFFF" opacity="0.1"></path>
                <path d="M86.1391,139.4777 C84.2711,144.0907 86.4961,149.3447 91.1091,151.2127 C95.7221,153.0807 100.9761,150.8557 102.8441,146.2427 C104.7121,141.6297 102.4871,136.3757 97.8741,134.5077 C93.2611,132.6397 88.0071,134.8647 86.1391,139.4777" id="Fill-28" fill="#F1D1B5"></path>
                <polygon id="Fill-30" fill="#FFBF48" points="144.0818 133.7617 82.6198 135.8397 80.3668 130.2767 125.2978 85.6587"></polygon>
                <polygon id="Fill-32" fill="#FF6F6C" points="88.7226 121.9591 80.3666 130.2761 82.6196 135.8401 94.0236 135.4541"></polygon>
                <path d="M155.5211,115.9074 C154.5201,115.9874 153.5971,115.3044 153.4001,114.2954 C150.9561,101.7304 144.5181,95.6454 144.4541,95.5854 C143.6451,94.8364 143.5931,93.5724 144.3391,92.7614 C145.0851,91.9514 146.3441,91.8934 147.1571,92.6374 C147.4601,92.9144 154.6131,99.5844 157.3271,113.5314 C157.5381,114.6154 156.8301,115.6654 155.7461,115.8764 C155.6711,115.8914 155.5951,115.9014 155.5211,115.9074" id="Fill-34" fill="#FFBF48"></path>
                <path d="M162.6657,115.3348 C161.6057,115.4198 160.6567,114.6558 160.5227,113.5898 C158.3687,96.4188 149.8237,90.5028 149.7377,90.4448 C148.8247,89.8328 148.5717,88.5938 149.1787,87.6778 C149.7857,86.7598 151.0137,86.5018 151.9347,87.1028 C152.3477,87.3728 162.0887,93.9358 164.4917,113.0928 C164.6287,114.1878 163.8527,115.1878 162.7567,115.3258 C162.7257,115.3298 162.6957,115.3328 162.6657,115.3348" id="Fill-36" fill="#FFBF48"></path>
                <path d="M46.2834,123.2564 C46.2834,123.2564 39.7564,145.6614 51.9614,149.3374 L54.5504,141.7664 C54.5504,141.7664 48.0214,141.0744 51.7774,125.7904 L46.2834,123.2564 Z" id="Fill-38" fill="#21A9F7"></path>
                <path d="M54.5991,125.5389 C53.5641,130.4069 53.9051,135.4759 49.0371,134.4409 C44.1691,133.4049 41.0621,128.6199 42.0971,123.7519 C43.1331,118.8829 47.9191,115.7769 52.7871,116.8119 C57.6551,117.8479 55.6341,120.6709 54.5991,125.5389" id="Fill-40" fill="#F1D1B5"></path>
                <path d="M143.0618,105.478 C148.2058,118.82 148.2858,132.17 144.5308,133.618 C140.7758,135.066 133.5618,125.423 128.4168,112.081 C123.2728,98.739 122.1468,86.749 125.9018,85.302 C129.6568,83.854 137.9178,92.136 143.0618,105.478" id="Fill-42" fill="#FFBF48"></path>
                <polygon id="Fill-44" fill="#FFBF48" points="136.8086 117.7808 131.2886 104.1208 143.4266 101.3728 147.4476 111.3238"></polygon>
                <path d="M147.435,111.3406 C146.491,111.7226 144.825,109.8026 143.714,107.0526 C142.602,104.3036 142.467,101.7656 143.411,101.3836 C144.355,101.0026 146.021,102.9216 147.132,105.6716 C148.244,108.4206 148.379,110.9586 147.435,111.3406" id="Fill-46" fill="#FFBF48"></path>
            </g>
        </g>
    </g>
</svg>