<?xml version="1.0" encoding="UTF-8" standalone="no"?>
<svg width="182px" height="224px" viewBox="0 0 182 224" version="1.1" xmlns="http://www.w3.org/2000/svg" xmlns:xlink="http://www.w3.org/1999/xlink">
    <!-- Generator: Sketch 3.7.1 (28215) - http://www.bohemiancoding.com/sketch -->
    <title>服务异常</title>
    <desc>Created with Sketch.</desc>
    <defs>
        <polygon id="path-1" points="0 0.143 158.971 0.143 158.971 204 0 204"></polygon>
    </defs>
    <g id="切图" stroke="none" stroke-width="1" fill="none" fill-rule="evenodd">
        <g id="服务异常">
            <g id="Page-1" transform="translate(12.000000, 20.000000)">
                <path d="M65.9966,203 C58.2408857,203 51.9537429,201.880714 51.9537429,200.5 C51.9537429,199.119286 58.2408857,198 65.9966,198 C73.7523143,198 80.0394571,199.119286 80.0394571,200.5 C80.0394571,201.880714 73.7523143,203 65.9966,203 Z" id="Fill-1" fill="#D8D8D8"></path>
                <mask id="mask-2" fill="white">
                    <use xlink:href="#path-1"></use>
                </mask>
                <g id="Clip-4"></g>
                <polygon id="Fill-3" fill="#303131" mask="url(#mask-2)" points="104.263 183.974 100.263 183.974 100.263 157.943 104.263 157.943"></polygon>
                <polygon id="Fill-5" fill="#303131" mask="url(#mask-2)" points="135.763 183.974 131.763 183.974 131.763 157.943 135.763 157.943"></polygon>
                <polygon id="Fill-6" fill="#303131" mask="url(#mask-2)" points="134.674 183.974 100.264 183.974 100.264 180.224 134.674 180.224"></polygon>
                <path d="M136.0131,170.6487 L100.3081,170.6487 C98.1081,170.6487 96.3081,168.8487 96.3081,166.6487 L96.3081,150.0777 C96.3081,147.8777 98.1081,146.0777 100.3081,146.0777 L136.0131,146.0777 C138.2131,146.0777 140.0131,147.8777 140.0131,150.0777 L140.0131,166.6487 C140.0131,168.8487 138.2131,170.6487 136.0131,170.6487" id="Fill-7" fill="#21A9F7" mask="url(#mask-2)"></path>
                <polygon id="Fill-8" fill="#CFCFCF" mask="url(#mask-2)" points="158.971 177.057 18.45 177.057 18.45 167.557 158.971 167.557"></polygon>
                <polygon id="Fill-9" fill="#CFCFCF" mask="url(#mask-2)" points="35.561 200.5 27.179 200.5 27.179 170.557 35.561 170.557"></polygon>
                <polygon id="Fill-10" fill="#CFCFCF" mask="url(#mask-2)" points="149.332 200.5 140.95 200.5 140.95 170.557 149.332 170.557"></polygon>
                <path d="M54.6305,132.4848 C54.6305,132.4848 49.8095,141.5628 46.6665,168.0268 L84.0115,167.5958 C84.0115,167.5958 82.2655,152.3148 77.5615,132.4408 L54.6305,132.4848 Z" id="Fill-11" fill="#1C8DF6" mask="url(#mask-2)"></path>
                <path d="M70.1786,157.8806 C69.8126,157.2456 69.0026,157.0296 68.3706,157.3966 C68.3596,157.4016 68.3486,157.4086 68.3426,157.4166 C65.7626,158.8756 62.4856,157.9866 61.0016,155.4166 C59.5106,152.8326 60.3946,149.5286 62.9786,148.0366 C65.1686,146.7746 67.8686,147.2166 69.5516,148.9496 L64.4546,151.9066 L64.4566,151.9066 C63.8216,152.2746 63.6056,153.0826 63.9736,153.7166 C64.3376,154.3506 65.1456,154.5686 65.7806,154.2036 L73.2186,149.8986 C73.0646,149.4876 72.8766,149.0816 72.6536,148.6886 C70.4296,144.8416 65.5036,143.5206 61.6556,145.7456 C57.8036,147.9666 56.4836,152.8886 58.7086,156.7396 C60.9286,160.5846 65.8386,161.9046 69.6856,159.6986 C69.6896,159.6956 69.6916,159.6946 69.6956,159.6916 L69.6986,159.6906 L69.7046,159.6866 C70.0936,159.4616 70.4576,159.2106 70.7906,158.9336 L70.1816,157.8806 L70.1786,157.8806 Z" id="Fill-12" fill="#FFFFFF" mask="url(#mask-2)"></path>
                <path d="M73.3234,153.8127 L72.6574,152.6637 L70.3614,153.9897 L71.6884,156.2837 L72.8364,155.6237 C73.4694,155.2567 73.6864,154.4467 73.3234,153.8127" id="Fill-13" fill="#FFFFFF" mask="url(#mask-2)"></path>
                <path d="M135.4363,69.4138 C134.5843,106.8088 103.5783,136.4318 66.1833,135.5798 C28.7893,134.7268 -0.8347,103.7218 0.0183,66.3268 C0.8703,28.9318 31.8763,-0.6912 69.2703,0.1608 C106.6653,1.0138 136.2883,32.0188 135.4363,69.4138" id="Fill-14" fill="#21A9F7" mask="url(#mask-2)"></path>
                <path d="M125.5417,42.7226 C124.9447,37.2046 115.9557,31.1596 110.2027,30.4436 C98.9867,29.0476 84.3087,27.4946 67.7067,27.0926 C49.8147,26.6596 37.2507,27.5896 24.6717,28.4966 C19.0457,28.9026 11.9937,34.1826 11.0727,39.5016 C9.1117,50.8156 4.7447,71.2936 7.4257,98.1786 C7.4887,98.8076 7.6637,100.2376 7.9047,101.8556 C17.2667,117.5856 33.4627,129.2766 52.7737,133.2546 C56.7067,133.6316 60.9207,133.7216 65.4417,133.4346 C80.9357,132.4526 92.6727,129.5546 101.4327,126.0336 C111.7247,120.3366 120.2727,112.1336 126.1217,102.2816 C127.9447,81.8706 126.9867,56.0746 125.5417,42.7226" id="Fill-15" fill="#1365B5" mask="url(#mask-2)"></path>
                <path d="M17.6917,110.4033 C17.7907,111.2183 18.0927,111.9933 18.5767,112.6343 C20.1207,114.6783 23.4067,118.5403 28.6877,122.4243 C35.7537,127.6223 47.9597,133.9363 65.9827,134.4963 C83.9707,134.7573 96.4517,129.0063 103.7467,124.1353 C109.1967,120.4973 112.6557,116.7903 114.2927,114.8163 C114.8057,114.1973 115.1437,113.4373 115.2797,112.6283 C120.6697,80.5043 118.7607,57.0643 117.4597,47.3083 C117.2027,45.3873 115.8107,43.8713 114.0057,43.5343 C105.1927,41.8873 85.6267,38.5943 68.1567,38.1963 C50.2957,37.7893 30.8787,40.1763 22.1057,41.4263 C20.2917,41.6843 18.8357,43.1333 18.4927,45.0363 C16.7487,54.7143 13.7687,78.0503 17.6917,110.4033 M65.8517,140.2413 C28.3377,139.0753 13.5577,115.2543 12.9477,114.2413 C12.9477,114.2413 12.7677,113.9733 12.6917,113.6963 C12.6507,113.5453 12.5477,113.0853 12.5477,113.0853 C8.3217,80.1343 11.5377,54.9643 13.6147,43.6533 C14.3437,39.6893 17.7937,36.5993 22.2017,35.9463 C32.3057,34.4493 51.3767,32.0663 68.2877,32.4523 C84.8607,32.8303 104.0507,36.1803 114.1677,38.1783 C118.5267,39.0393 121.8177,42.2723 122.3687,46.2533 C123.9367,57.6073 126.0187,82.8213 120.2957,115.5413 C120.2957,115.5413 120.2347,115.8343 120.1247,116.1283 C119.9947,116.4773 119.8437,116.6773 119.8437,116.6773 C119.1877,117.6623 103.3377,140.7853 65.8517,140.2413" id="Fill-16" fill="#1365B5" mask="url(#mask-2)"></path>
                <path d="M120.1695,46.9717 C119.7405,43.7827 117.4475,41.2567 114.4505,40.6947 C105.5625,39.0297 85.9435,35.7287 68.2225,35.3247 C50.1025,34.9117 30.6295,37.3067 21.7825,38.5707 C18.7695,39.0007 16.3745,41.4187 15.8015,44.5777 C14.0005,54.5087 11.0205,77.9927 14.9985,110.7757 C15.1615,112.1167 15.6655,113.3897 16.4615,114.4457 C20.5955,119.9267 35.5145,136.4237 65.8965,137.3677 C96.2895,137.8097 111.9455,122.0087 116.3245,116.7217 C117.1675,115.7037 117.7295,114.4547 117.9525,113.1227 C123.4185,80.5707 121.5165,56.9827 120.1695,46.9717" id="Fill-17" fill="#1365B5" mask="url(#mask-2)"></path>
                <path d="M61.6327,73.1547 C59.3747,71.5287 56.5607,71.2237 54.0987,72.0587 C52.5247,72.5927 51.0937,73.5837 50.0497,75.0237 C50.0447,75.0307 50.0387,75.0357 50.0337,75.0427 L42.1637,85.8437 C39.3837,89.0347 34.5677,89.6817 31.0697,87.1617 C27.3607,84.4917 26.5107,79.2717 29.1817,75.5627 L58.4317,35.2777 C46.9487,35.6777 31.1987,37.4257 23.5937,38.4577 C19.0797,39.0697 15.9927,41.9177 15.4927,46.0047 C11.1297,81.6177 14.4427,112.9257 14.4427,112.9257 C15.7407,114.8507 17.1637,116.6047 18.6487,118.2207 C22.8357,122.7757 27.5307,126.1287 31.5147,128.4647 C31.8307,128.1497 32.1427,127.8267 32.4107,127.4537 L45.9467,108.8747 L63.5207,84.7537 C66.1907,81.0447 65.3417,75.8257 61.6327,73.1547" id="Fill-18" fill="#FFFFFF" opacity="0.1" mask="url(#mask-2)"></path>
                <polygon id="Fill-19" fill="#303131" mask="url(#mask-2)" points="141.888 156.599 140.013 156.599 140.013 152.078 141.888 152.078"></polygon>
                <polygon id="Fill-20" fill="#303131" mask="url(#mask-2)" points="96.308 156.599 94.433 156.599 94.433 152.078 96.308 152.078"></polygon>
                <path d="M43.3877064,167.440749 C43.3877064,167.440749 41.9541808,173.235005 51.3560773,184.31729 C60.7579738,195.398794 58.9697776,171.050734 53.957516,165.74708 C48.9452545,160.443426 43.3416148,165.001803 43.3877064,167.440749" id="Fill-21" fill="#303131" mask="url(#mask-2)"></path>
                <path d="M79.9665156,184.348664 C70.5321553,195.468432 72.326526,171.0363 77.3560944,165.714333 C82.3856628,160.392366 88.0086513,164.966482 87.9624006,167.41385 C87.9624006,167.41385 89.400876,173.228113 79.9665156,184.348664 Z" id="Fill-22" fill="#303131" mask="url(#mask-2)"></path>
                <path d="M49.4298,163.9501 C49.4298,163.9501 52.5608,163.2551 65.4228,163.2521 C77.9298,163.2501 82.5628,163.7631 82.5628,163.7631 C82.5628,163.7631 82.0128,169.2911 65.3398,169.2891 C50.1658,169.2861 49.4298,163.9501 49.4298,163.9501" id="Fill-23" fill="#303131" mask="url(#mask-2)"></path>
                <path d="M48.9098,139.2282 C48.9098,139.2282 39.4388,151.8522 46.1708,155.3082 C52.9028,158.7652 53.4238,141.2812 52.9638,139.9532 C52.5038,138.6252 48.9098,139.2282 48.9098,139.2282" id="Fill-24" fill="#21A9F7" mask="url(#mask-2)"></path>
                <path d="M81.6502,138.0329 C81.6502,138.0329 91.8712,150.0579 85.3622,153.9169 C78.8522,157.7759 77.2692,140.3569 77.6482,139.0029 C78.0262,137.6489 81.6502,138.0329 81.6502,138.0329" id="Fill-25" fill="#21A9F7" mask="url(#mask-2)"></path>
                <path d="M58.3396,136.4125 C58.3396,140.1255 55.3296,143.1365 51.6156,143.1365 C47.9026,143.1365 44.8916,140.1255 44.8916,136.4125 C44.8916,132.6995 47.9026,129.6885 51.6156,129.6885 C55.3296,129.6885 58.3396,132.6995 58.3396,136.4125" id="Fill-26" fill="#F1D1B5" mask="url(#mask-2)"></path>
                <path d="M85.7551,136.4125 C85.7551,140.1255 82.7451,143.1365 79.0311,143.1365 C75.3181,143.1365 72.3071,140.1255 72.3071,136.4125 C72.3071,132.6995 75.3181,129.6885 79.0311,129.6885 C82.7451,129.6885 85.7551,132.6995 85.7551,136.4125" id="Fill-27" fill="#F1D1B5" mask="url(#mask-2)"></path>
            </g>
        </g>
    </g>
</svg>