<?xml version="1.0" encoding="UTF-8" standalone="no"?>
<svg width="182px" height="224px" viewBox="0 0 182 224" version="1.1" xmlns="http://www.w3.org/2000/svg" xmlns:xlink="http://www.w3.org/1999/xlink">
    <!-- Generator: Sketch 3.7.1 (28215) - http://www.bohemiancoding.com/sketch -->
    <title>服务异常</title>
    <desc>Created with Sketch.</desc>
    <defs>
        <polyline id="path-1" points="0 0.071 135.454 0.071 135.454 193 0 193"></polyline>
    </defs>
    <g id="切图" stroke="none" stroke-width="1" fill="none" fill-rule="evenodd">
        <g id="服务异常">
            <g id="Page-1" transform="translate(23.000000, 31.000000)">
                <path d="M88.4788,188.7666 C88.4788,191.1046 77.8318,192.9996 64.6988,192.9996 C51.5658,192.9996 40.9188,191.1046 40.9188,188.7666 C40.9188,186.4286 51.5658,184.5336 64.6988,184.5336 C77.8318,184.5336 88.4788,186.4286 88.4788,188.7666" id="Fill-1" fill="#D8D8D8"></path>
                <path d="M76.1765,140.3909 C76.1765,140.3909 91.9775,145.7649 97.4775,135.6229 L103.3305,139.9819 C103.3305,139.9819 90.1585,155.6759 76.1765,146.9819 L76.1765,140.3909 Z" id="Fill-3" fill="#21A9F7"></path>
                <path d="M95.7564,179.9372 L83.7504,179.9372 C79.0244,179.9372 75.1574,176.0702 75.1574,171.3432 L75.1574,164.2722 C75.1574,159.5452 79.0244,155.6782 83.7504,155.6782 L95.7564,155.6782 C100.4834,155.6782 104.3504,159.5452 104.3504,164.2722 L104.3504,171.3432 C104.3504,176.0702 100.4834,179.9372 95.7564,179.9372" id="Fill-5" fill="#1C8DF6"></path>
                <path d="M86.8174,162.5651 L86.8174,162.5651 C86.0914,162.8521 85.2714,162.4961 84.9844,161.7701 L77.4044,142.5901 C77.1184,141.8641 77.4734,141.0441 78.1994,140.7571 L78.1994,140.7571 C78.9254,140.4701 79.7454,140.8261 80.0324,141.5521 L87.6124,160.7321 C87.8984,161.4581 87.5434,162.2781 86.8174,162.5651" id="Fill-7" fill="#303131"></path>
                <path d="M39.1583,143.2637 C39.1583,143.2637 51.1443,145.1477 54.1443,139.5647 L54.1443,147.1477 C54.1443,147.1477 49.5033,152.7347 38.1273,149.6057 C38.2933,148.1057 39.1583,143.2637 39.1583,143.2637" id="Fill-9" fill="#21A9F7"></path>
                <path d="M92.2557,129.5826 C92.2557,135.6996 97.2137,140.6576 103.3307,140.6576 C109.4477,140.6576 114.4057,135.6996 114.4057,129.5826 C114.4057,123.4656 109.4477,118.5076 103.3307,118.5076 C97.2137,118.5076 92.2557,123.4656 92.2557,129.5826" id="Fill-11" fill="#F1D1B5"></path>
                <path d="M76.1765,140.3909 C76.6885,139.9449 79.2205,139.4449 79.2825,138.5329 C79.4645,135.9079 76.8385,134.7299 76.8385,134.7299 L72.7315,135.1489 L64.6855,135.2359 L56.9245,135.1519 L52.7045,134.7219 C52.7045,134.7219 50.0785,135.8989 50.2595,138.5249 C50.3175,139.3549 53.2505,137.6999 53.7265,139.5489 C48.6015,152.1369 46.4825,167.8079 46.4825,167.8079 L65.0815,167.8079 L65.5655,167.8079 L82.2485,167.8079 C82.2485,167.8079 80.1315,149.0519 76.1765,140.3909" id="Fill-13" fill="#21A9F7"></path>
                <path d="M70.7854,159.2682 C70.4194,158.6332 69.6094,158.4172 68.9774,158.7842 C68.9664,158.7892 68.9554,158.7962 68.9494,158.8042 C66.3694,160.2632 63.0924,159.3742 61.6084,156.8042 C60.1174,154.2202 61.0014,150.9162 63.5854,149.4242 C65.7754,148.1622 68.4754,148.6042 70.1584,150.3372 L65.0614,153.2942 L65.0634,153.2942 C64.4284,153.6622 64.2124,154.4702 64.5804,155.1042 C64.9444,155.7382 65.7524,155.9562 66.3874,155.5912 L73.8254,151.2862 C73.6714,150.8752 73.4834,150.4692 73.2604,150.0762 C71.0364,146.2292 66.1104,144.9082 62.2624,147.1332 C58.4104,149.3542 57.0904,154.2762 59.3154,158.1272 C61.5354,161.9722 66.4454,163.2922 70.2924,161.0862 C70.2964,161.0832 70.2984,161.0822 70.3024,161.0792 L70.3054,161.0782 L70.3114,161.0742 C70.7004,160.8492 71.0644,160.5982 71.3974,160.3212 L70.7884,159.2682 L70.7854,159.2682 Z" id="Fill-15" fill="#FFFFFF"></path>
                <path d="M73.9301,155.2002 L73.2641,154.0512 L70.9681,155.3772 L72.2951,157.6712 L73.4431,157.0112 C74.0761,156.6442 74.2931,155.8342 73.9301,155.2002" id="Fill-17" fill="#FFFFFF"></path>
                <path d="M46.6089,167.8078 L82.3759,167.8078 C82.3759,167.8078 86.3459,188.4208 82.3759,188.6538 C78.4049,188.8878 72.9119,178.2868 65.3749,178.2308 C58.0379,178.1768 55.0509,186.7928 48.7459,188.6578 C42.4399,190.5228 46.6089,167.8078 46.6089,167.8078" id="Fill-19" fill="#303131"></path>
                <g id="Group-23">
                    <mask id="mask-2" fill="white">
                        <use xlink:href="#path-1"></use>
                    </mask>
                    <g id="Clip-22"></g>
                    <path d="M135.4363,70.5318 C134.5843,107.9268 103.5783,137.5498 66.1833,136.6978 C28.7893,135.8448 -0.8347,104.8398 0.0183,67.4448 C0.8703,30.0498 31.8763,0.4268 69.2703,1.2788 C106.6653,2.1318 136.2883,33.1368 135.4363,70.5318" id="Fill-21" fill="#21A9F7" mask="url(#mask-2)"></path>
                </g>
                <path d="M125.5417,43.8407 C124.9447,38.3227 115.9557,32.2777 110.2027,31.5617 C98.9867,30.1657 84.3087,28.6127 67.7067,28.2107 C49.8147,27.7777 37.2507,28.7077 24.6717,29.6147 C19.0457,30.0207 11.9937,35.3007 11.0727,40.6197 C9.1117,51.9337 4.7447,72.4117 7.4257,99.2967 C7.4887,99.9257 7.6637,101.3557 7.9047,102.9737 C17.2667,118.7037 33.4627,130.3947 52.7737,134.3727 C56.7067,134.7497 60.9207,134.8397 65.4417,134.5527 C80.9357,133.5707 92.6727,130.6727 101.4327,127.1517 C111.7247,121.4547 120.2727,113.2517 126.1217,103.3997 C127.9447,82.9887 126.9867,57.1927 125.5417,43.8407" id="Fill-24" fill="#1365B5"></path>
                <path d="M17.6917,111.5213 C17.7907,112.3363 18.0927,113.1113 18.5767,113.7523 C20.1207,115.7963 23.4067,119.6583 28.6877,123.5423 C35.7537,128.7403 47.9597,135.0543 65.9827,135.6143 C83.9707,135.8753 96.4517,130.1243 103.7467,125.2533 C109.1967,121.6153 112.6557,117.9083 114.2927,115.9343 C114.8057,115.3153 115.1437,114.5553 115.2797,113.7463 C120.6697,81.6223 118.7607,58.1823 117.4597,48.4263 C117.2027,46.5053 115.8107,44.9893 114.0057,44.6523 C105.1927,43.0053 85.6267,39.7123 68.1567,39.3143 C50.2957,38.9073 30.8787,41.2943 22.1057,42.5443 C20.2917,42.8023 18.8357,44.2513 18.4927,46.1543 C16.7487,55.8323 13.7687,79.1683 17.6917,111.5213 M65.8517,141.3593 C28.3377,140.1933 13.5577,116.3723 12.9477,115.3593 C12.9477,115.3593 12.7677,115.0913 12.6917,114.8143 C12.6507,114.6633 12.5477,114.2033 12.5477,114.2033 C8.3217,81.2523 11.5377,56.0823 13.6147,44.7713 C14.3437,40.8073 17.7937,37.7173 22.2017,37.0643 C32.3057,35.5673 51.3767,33.1843 68.2877,33.5703 C84.8607,33.9483 104.0507,37.2983 114.1677,39.2963 C118.5267,40.1573 121.8177,43.3903 122.3687,47.3713 C123.9367,58.7253 126.0187,83.9393 120.2957,116.6593 C120.2957,116.6593 120.2347,116.9523 120.1247,117.2463 C119.9947,117.5953 119.8437,117.7953 119.8437,117.7953 C119.1877,118.7803 103.3377,141.9033 65.8517,141.3593" id="Fill-26" fill="#1365B5"></path>
                <path d="M120.1695,48.0898 C119.7405,44.9008 117.4475,42.3748 114.4505,41.8128 C105.5625,40.1478 85.9435,36.8468 68.2225,36.4428 C50.1025,36.0298 30.6295,38.4248 21.7825,39.6888 C18.7695,40.1188 16.3745,42.5368 15.8015,45.6958 C14.0005,55.6268 11.0205,79.1108 14.9985,111.8938 C15.1615,113.2348 15.6655,114.5078 16.4615,115.5638 C20.5955,121.0448 35.5145,137.5418 65.8965,138.4858 C96.2895,138.9278 111.9455,123.1268 116.3245,117.8398 C117.1675,116.8218 117.7295,115.5728 117.9525,114.2408 C123.4185,81.6888 121.5165,58.1008 120.1695,48.0898" id="Fill-28" fill="#1365B5"></path>
                <path d="M61.6327,74.2728 C59.3747,72.6468 56.5607,72.3418 54.0987,73.1768 C52.5247,73.7108 51.0937,74.7018 50.0497,76.1418 C50.0447,76.1488 50.0387,76.1538 50.0337,76.1608 L42.1637,86.9628 C39.3837,90.1528 34.5677,90.7998 31.0697,88.2798 C27.3607,85.6098 26.5107,80.3898 29.1817,76.6808 L58.4317,36.3958 C46.9487,36.7958 31.1987,38.5438 23.5937,39.5758 C19.0797,40.1878 15.9927,43.0358 15.4927,47.1228 C11.1297,82.7358 14.4427,114.0438 14.4427,114.0438 C15.7407,115.9688 17.1637,117.7228 18.6487,119.3388 C22.8357,123.8938 27.5307,127.2468 31.5147,129.5828 C31.8307,129.2678 32.1427,128.9448 32.4107,128.5718 L45.9467,109.9928 L63.5207,85.8718 C66.1907,82.1628 65.3417,76.9438 61.6327,74.2728" id="Fill-30" fill="#FFFFFF" opacity="0.1"></path>
                <path d="M37.7441,144.3707 L44.9241,122.0847 C45.5981,119.9907 44.4371,117.7257 42.3431,117.0507 L40.8521,116.5707 C38.7581,115.8957 36.4931,117.0567 35.8181,119.1517 L28.6381,141.4367 C27.9641,143.5307 29.1251,145.7967 31.2191,146.4707 L32.7101,146.9517 C34.8041,147.6257 37.0691,146.4647 37.7441,144.3707" id="Fill-32" fill="#331D0C"></path>
                <path d="M23.7229,144.0122 C23.7229,149.1432 27.8819,153.3022 33.0129,153.3022 C38.1439,153.3022 42.3039,149.1432 42.3039,144.0122 C42.3039,138.8812 38.1439,134.7222 33.0129,134.7222 C27.8819,134.7222 23.7229,138.8812 23.7229,144.0122" id="Fill-34" fill="#F1D1B5"></path>
                <path d="M83.2683,90.8716 C81.4113,108.8576 65.3263,121.9326 47.3403,120.0756 C29.3543,118.2186 16.2793,102.1336 18.1363,84.1476 C19.9933,66.1616 36.0783,53.0866 54.0643,54.9436 C72.0503,56.8006 85.1253,72.8856 83.2683,90.8716" id="Fill-36" fill="#FFFFFF" opacity="0.6"></path>
                <path d="M36.7216,60.0199 C21.5656,67.7239 15.5036,86.3209 23.2076,101.4769 C26.9386,108.8189 33.3066,114.2679 41.1366,116.8209 C48.9666,119.3729 57.3226,118.7239 64.6646,114.9909 C72.0066,111.2599 77.4556,104.8919 80.0076,97.0619 C82.5606,89.2309 81.9116,80.8759 78.1786,73.5339 C74.4466,66.1919 68.0796,60.7429 60.2496,58.1899 C58.1276,57.4989 55.9676,57.0429 53.7986,56.8189 C47.9656,56.2169 42.0736,57.2989 36.7216,60.0199 M38.9716,123.4629 C29.3676,120.3309 21.5566,113.6479 16.9796,104.6429 C7.5306,86.0529 14.9666,63.2409 33.5566,53.7919 C42.5616,49.2139 52.8106,48.4169 62.4146,51.5489 C72.0186,54.6799 79.8296,61.3629 84.4066,70.3689 C88.9846,79.3739 89.7806,89.6219 86.6496,99.2269 C83.5186,108.8319 76.8356,116.6419 67.8306,121.2199 C61.2646,124.5559 54.0396,125.8839 46.8836,125.1449 C44.2246,124.8709 41.5736,124.3109 38.9716,123.4629" id="Fill-38" fill="#331D0C"></path>
            </g>
        </g>
    </g>
</svg>