<?xml version="1.0" encoding="UTF-8" standalone="no"?>
<svg width="182px" height="224px" viewBox="0 0 182 224" version="1.1" xmlns="http://www.w3.org/2000/svg" xmlns:xlink="http://www.w3.org/1999/xlink">
    <!-- Generator: Sketch 3.7.1 (28215) - http://www.bohemiancoding.com/sketch -->
    <title>服务异常</title>
    <desc>Created with Sketch.</desc>
    <defs>
        <polyline id="path-1" points="0 0.561 135.454 0.561 135.454 192 0 192"></polyline>
    </defs>
    <g id="切图" stroke="none" stroke-width="1" fill="none" fill-rule="evenodd">
        <g id="服务异常">
            <g id="Page-1-Copy" transform="translate(23.000000, 32.000000)">
                <g id="Group-32">
                    <path d="M94.8094,178.9416 L82.8034,178.9416 C78.0774,178.9416 74.2104,175.0746 74.2104,170.3476 L74.2104,163.2766 C74.2104,158.5496 78.0774,154.6826 82.8034,154.6826 L94.8094,154.6826 C99.5364,154.6826 103.4034,158.5496 103.4034,163.2766 L103.4034,170.3476 C103.4034,175.0746 99.5364,178.9416 94.8094,178.9416" id="Fill-1" fill="#1C8DF6"></path>
                    <path d="M34.4912,151.9378 C34.4912,151.9378 41.5782,158.2948 48.5432,157.0358 C55.5092,155.7778 44.1262,143.7588 42.9062,143.9308 C41.6872,144.1018 34.4912,151.9378 34.4912,151.9378" id="Fill-3" fill="#21A9F7"></path>
                    <path d="M96.4722,151.6777 C96.4722,151.6777 89.3852,158.0347 82.4202,156.7757 C75.4542,155.5177 86.8372,143.4987 88.0572,143.6707 C89.2762,143.8417 96.4722,151.6777 96.4722,151.6777" id="Fill-5" fill="#21A9F7"></path>
                    <path d="M84.3935,188.0665 C84.3935,190.2385 74.5015,191.9995 62.2985,191.9995 C50.0955,191.9995 40.2025,190.2385 40.2025,188.0665 C40.2025,185.8945 50.0955,184.1325 62.2985,184.1325 C74.5015,184.1325 84.3935,185.8945 84.3935,188.0665" id="Fill-7" fill="#D8D8D8"></path>
                    <path d="M84.4169,161.865 L84.4169,161.865 C83.6909,162.152 82.8709,161.796 82.5839,161.07 L75.0039,141.89 C74.7179,141.164 75.0729,140.344 75.7989,140.057 L75.7989,140.057 C76.5249,139.77 77.3449,140.126 77.6319,140.852 L85.2119,160.032 C85.4979,160.758 85.1429,161.578 84.4169,161.865" id="Fill-9" fill="#303131"></path>
                    <path d="M73.7759,139.6908 C74.2879,139.2448 76.8199,138.7448 76.8819,137.8328 C77.0639,135.2078 74.4379,134.0298 74.4379,134.0298 L70.3309,134.4488 L62.2849,134.5358 L54.5239,134.4518 L50.3039,134.0218 C50.3039,134.0218 47.6779,135.1988 47.8589,137.8248 C47.9169,138.6548 50.8499,136.9998 51.3259,138.8488 C46.2009,151.4368 44.0819,167.1078 44.0819,167.1078 L62.6809,167.1078 L63.1649,167.1078 L79.8479,167.1078 C79.8479,167.1078 77.7309,148.3518 73.7759,139.6908" id="Fill-11" fill="#21A9F7"></path>
                    <path d="M68.3848,158.5681 C68.0188,157.9331 67.2088,157.7171 66.5768,158.0841 C66.5658,158.0891 66.5548,158.0961 66.5488,158.1041 C63.9688,159.5631 60.6918,158.6741 59.2078,156.1041 C57.7168,153.5201 58.6008,150.2161 61.1848,148.7241 C63.3748,147.4621 66.0748,147.9041 67.7578,149.6371 L62.6608,152.5941 L62.6628,152.5941 C62.0278,152.9621 61.8118,153.7701 62.1798,154.4041 C62.5438,155.0381 63.3518,155.2561 63.9868,154.8911 L71.4248,150.5861 C71.2708,150.1751 71.0828,149.7691 70.8598,149.3761 C68.6358,145.5291 63.7098,144.2081 59.8618,146.4331 C56.0098,148.6541 54.6898,153.5761 56.9148,157.4271 C59.1348,161.2721 64.0448,162.5921 67.8918,160.3861 C67.8958,160.3831 67.8978,160.3821 67.9018,160.3791 L67.9048,160.3781 L67.9108,160.3741 C68.2998,160.1491 68.6638,159.8981 68.9968,159.6211 L68.3878,158.5681 L68.3848,158.5681 Z" id="Fill-13" fill="#FFFFFF"></path>
                    <path d="M71.5296,154.5002 L70.8636,153.3512 L68.5676,154.6772 L69.8946,156.9712 L71.0426,156.3112 C71.6756,155.9442 71.8926,155.1342 71.5296,154.5002" id="Fill-15" fill="#FFFFFF"></path>
                    <path d="M44.2083,167.1077 L79.9753,167.1077 C79.9753,167.1077 83.9453,187.7207 79.9753,187.9537 C76.0043,188.1877 70.5113,177.5867 62.9743,177.5307 C55.6373,177.4767 52.6503,186.0927 46.3453,187.9577 C40.0393,189.8227 44.2083,167.1077 44.2083,167.1077" id="Fill-17" fill="#303131"></path>
                    <g id="Group-21">
                        <mask id="mask-2" fill="white">
                            <use xlink:href="#path-1"></use>
                        </mask>
                        <g id="Clip-20"></g>
                        <path d="M135.4362,69.8318 C134.5842,107.2268 103.5782,136.8498 66.1832,135.9978 C28.7892,135.1448 -0.8348,104.1398 0.0182,66.7448 C0.8702,29.3498 31.8762,-0.2732 69.2702,0.5788 C106.6652,1.4318 136.2882,32.4368 135.4362,69.8318" id="Fill-19" fill="#21A9F7" mask="url(#mask-2)"></path>
                    </g>
                    <path d="M125.5416,43.1406 C124.9446,37.6226 115.9556,31.5776 110.2026,30.8616 C98.9866,29.4656 84.3086,27.9126 67.7066,27.5106 C49.8146,27.0776 37.2506,28.0076 24.6716,28.9146 C19.0456,29.3206 11.9936,34.6006 11.0726,39.9196 C9.1116,51.2336 4.7446,71.7116 7.4256,98.5966 C7.4886,99.2256 7.6636,100.6556 7.9046,102.2736 C17.2666,118.0036 33.4626,129.6946 52.7736,133.6726 C56.7066,134.0496 60.9206,134.1396 65.4416,133.8526 C80.9356,132.8706 92.6726,129.9726 101.4326,126.4516 C111.7246,120.7546 120.2726,112.5516 126.1216,102.6996 C127.9446,82.2886 126.9866,56.4926 125.5416,43.1406" id="Fill-22" fill="#1365B5"></path>
                    <path d="M17.6917,110.8213 C17.7907,111.6363 18.0927,112.4113 18.5767,113.0523 C20.1207,115.0963 23.4067,118.9583 28.6877,122.8423 C35.7537,128.0403 47.9597,134.3543 65.9827,134.9143 C83.9707,135.1753 96.4517,129.4243 103.7467,124.5533 C109.1967,120.9153 112.6557,117.2083 114.2927,115.2343 C114.8057,114.6153 115.1437,113.8553 115.2797,113.0463 C120.6697,80.9223 118.7607,57.4823 117.4597,47.7263 C117.2027,45.8053 115.8107,44.2893 114.0057,43.9523 C105.1927,42.3053 85.6267,39.0123 68.1567,38.6143 C50.2957,38.2073 30.8787,40.5943 22.1057,41.8443 C20.2917,42.1023 18.8357,43.5513 18.4927,45.4543 C16.7487,55.1323 13.7687,78.4683 17.6917,110.8213 M65.8517,140.6593 C28.3377,139.4933 13.5577,115.6723 12.9477,114.6593 C12.9477,114.6593 12.7677,114.3913 12.6917,114.1143 C12.6507,113.9633 12.5477,113.5033 12.5477,113.5033 C8.3217,80.5523 11.5377,55.3823 13.6147,44.0713 C14.3437,40.1073 17.7937,37.0173 22.2017,36.3643 C32.3057,34.8673 51.3767,32.4843 68.2877,32.8703 C84.8607,33.2483 104.0507,36.5983 114.1677,38.5963 C118.5267,39.4573 121.8177,42.6903 122.3687,46.6713 C123.9367,58.0253 126.0187,83.2393 120.2957,115.9593 C120.2957,115.9593 120.2347,116.2523 120.1247,116.5463 C119.9947,116.8953 119.8437,117.0953 119.8437,117.0953 C119.1877,118.0803 103.3377,141.2033 65.8517,140.6593" id="Fill-24" fill="#1365B5"></path>
                    <path d="M120.1695,47.3897 C119.7405,44.2007 117.4475,41.6747 114.4505,41.1127 C105.5625,39.4477 85.9435,36.1467 68.2225,35.7427 C50.1025,35.3297 30.6295,37.7247 21.7825,38.9887 C18.7695,39.4187 16.3745,41.8367 15.8015,44.9957 C14.0005,54.9267 11.0205,78.4107 14.9985,111.1937 C15.1615,112.5347 15.6655,113.8077 16.4615,114.8637 C20.5955,120.3447 35.5145,136.8417 65.8965,137.7857 C96.2895,138.2277 111.9455,122.4267 116.3245,117.1397 C117.1675,116.1217 117.7295,114.8727 117.9525,113.5407 C123.4185,80.9887 121.5165,57.4007 120.1695,47.3897" id="Fill-26" fill="#1365B5"></path>
                    <path d="M61.6327,73.5727 C59.3747,71.9467 56.5607,71.6417 54.0987,72.4767 C52.5247,73.0107 51.0937,74.0017 50.0497,75.4417 C50.0447,75.4487 50.0387,75.4537 50.0337,75.4607 L42.1637,86.2627 C39.3837,89.4527 34.5677,90.0997 31.0697,87.5797 C27.3607,84.9097 26.5107,79.6897 29.1817,75.9807 L58.4317,35.6957 C46.9487,36.0957 31.1987,37.8437 23.5937,38.8757 C19.0797,39.4877 15.9927,42.3357 15.4927,46.4227 C11.1297,82.0357 14.4427,113.3437 14.4427,113.3437 C15.7407,115.2687 17.1637,117.0227 18.6487,118.6387 C22.8357,123.1937 27.5307,126.5467 31.5147,128.8827 C31.8307,128.5677 32.1417,128.2447 32.4107,127.8717 L45.9467,109.2927 L63.5207,85.1717 C66.1907,81.4627 65.3417,76.2437 61.6327,73.5727" id="Fill-28" fill="#FFFFFF" opacity="0.1"></path>
                    <path d="M85.6829,161.9643 L41.5759,161.9643 C39.3759,161.9643 37.5759,160.1643 37.5759,157.9643 L37.5759,134.9483 C37.5759,132.7483 39.3759,130.9483 41.5759,130.9483 L85.6829,130.9483 C87.8829,130.9483 89.6829,132.7483 89.6829,134.9483 L89.6829,157.9643 C89.6829,160.1643 87.8829,161.9643 85.6829,161.9643" id="Fill-30" fill="#EFEDED"></path>
                </g>
                <text id="VIP" font-family="FZLTZHK--GBK1-0, Lantinghei SC" font-size="16.4491" font-weight="500" fill="#FCAA2B">
                    <tspan x="49.4817" y="155.80807">VIP</tspan>
                </text>
                <g id="Group-39" transform="translate(27.000000, 130.000000)">
                    <path d="M62.6829,9.0061 L62.6829,4.8401 C62.6829,2.6401 60.8829,0.8401 58.6829,0.8401 L14.5759,0.8401 C12.3759,0.8401 10.5759,2.6401 10.5759,4.8401 L10.5759,9.0061 L62.6829,9.0061 Z" id="Fill-33" fill="#FCAA2B"></path>
                    <path d="M0.4093,12.9576 C0.4093,18.0886 4.5683,22.2476 9.6993,22.2476 C14.8303,22.2476 18.9903,18.0886 18.9903,12.9576 C18.9903,7.8266 14.8303,3.6676 9.6993,3.6676 C4.5683,3.6676 0.4093,7.8266 0.4093,12.9576" id="Fill-35" fill="#F1D1B5"></path>
                    <path d="M55.5208,13.6684 C55.5208,18.7994 59.6798,22.9584 64.8108,22.9584 C69.9418,22.9584 74.1018,18.7994 74.1018,13.6684 C74.1018,8.5374 69.9418,4.3784 64.8108,4.3784 C59.6798,4.3784 55.5208,8.5374 55.5208,13.6684" id="Fill-37" fill="#F1D1B5"></path>
                </g>
            </g>
        </g>
    </g>
</svg>